<svg xmlns="http://www.w3.org/2000/svg" xmlns:xlink="http://www.w3.org/1999/xlink" width="500" zoomAndPan="magnify" viewBox="0 0 375 374.999991" height="500" preserveAspectRatio="xMidYMid meet" version="1.0"><defs><clipPath id="43e26a885d"><path d="M 6 4 L 369 4 L 369 368 L 6 368 Z M 6 4 " clip-rule="nonzero"/></clipPath><clipPath id="02c578dd23"><path d="M 0 186.511719 L 188.472656 -1.960938 L 375.484375 185.050781 L 187.011719 373.523438 Z M 0 186.511719 " clip-rule="nonzero"/></clipPath><clipPath id="2af5eb513f"><path d="M 10.609375 175.90625 L 177.382812 9.128906 C 180.195312 6.316406 184.011719 4.734375 187.988281 4.734375 C 191.96875 4.734375 195.785156 6.316406 198.597656 9.128906 L 364.394531 174.925781 C 367.207031 177.738281 368.789062 181.554688 368.789062 185.53125 C 368.789062 189.511719 367.207031 193.328125 364.394531 196.140625 L 197.617188 362.914062 C 191.761719 368.773438 182.261719 368.773438 176.40625 362.914062 L 10.609375 197.117188 C 4.75 191.257812 4.75 181.761719 10.609375 175.90625 Z M 10.609375 175.90625 " clip-rule="nonzero"/></clipPath><clipPath id="1bedec1333"><path d="M 21 19 L 354 19 L 354 353 L 21 353 Z M 21 19 " clip-rule="nonzero"/></clipPath><clipPath id="122ab1dbc2"><path d="M 14.894531 186.472656 L 188.398438 12.96875 L 360.554688 185.125 L 187.050781 358.628906 Z M 14.894531 186.472656 " clip-rule="nonzero"/></clipPath><clipPath id="5310ae01f4"><path d="M 25.5 175.863281 L 177.347656 24.019531 C 180.160156 21.207031 183.976562 19.625 187.953125 19.625 C 191.929688 19.625 195.746094 21.207031 198.558594 24.019531 L 349.503906 174.964844 C 352.316406 177.777344 353.898438 181.59375 353.898438 185.570312 C 353.898438 189.546875 352.316406 193.363281 349.503906 196.175781 L 197.660156 348.023438 C 191.800781 353.878906 182.304688 353.878906 176.445312 348.023438 L 25.5 197.078125 C 19.644531 191.21875 19.644531 181.722656 25.5 175.863281 Z M 25.5 175.863281 " clip-rule="nonzero"/></clipPath><clipPath id="3b543375d9"><path d="M 21 19 L 354 19 L 354 353 L 21 353 Z M 21 19 " clip-rule="nonzero"/></clipPath><clipPath id="6cfba09536"><path d="M 14.894531 186.472656 L 187.78125 13.582031 L 360.140625 185.941406 L 187.253906 358.828125 Z M 14.894531 186.472656 " clip-rule="nonzero"/></clipPath><clipPath id="8829ea2d3e"><path d="M 14.898438 186.46875 L 188.902344 12.460938 L 362.910156 186.46875 L 188.902344 360.476562 Z M 14.898438 186.46875 " clip-rule="nonzero"/></clipPath><clipPath id="530af2836e"><path d="M 25.503906 175.863281 L 177.339844 24.023438 C 180.152344 21.210938 183.96875 19.632812 187.945312 19.632812 C 191.925781 19.632812 195.742188 21.210938 198.554688 24.023438 L 349.492188 174.964844 C 352.304688 177.777344 353.882812 181.589844 353.882812 185.570312 C 353.882812 189.546875 352.304688 193.363281 349.492188 196.175781 L 197.652344 348.011719 C 191.796875 353.871094 182.296875 353.871094 176.441406 348.011719 L 25.503906 197.074219 C 19.644531 191.21875 19.644531 181.722656 25.503906 175.863281 Z M 25.503906 175.863281 " clip-rule="nonzero"/></clipPath><clipPath id="0cc801da88"><path d="M 135 163.152344 L 240 163.152344 L 240 293.902344 L 135 293.902344 Z M 135 163.152344 " clip-rule="nonzero"/></clipPath><clipPath id="a0fc0f7b33"><path d="M 194.609375 168.160156 L 238.90625 276.257812 C 240.496094 280.136719 240.050781 284.554688 237.714844 288.039062 C 235.378906 291.519531 231.460938 293.609375 227.265625 293.609375 L 147.734375 293.609375 C 143.539062 293.609375 139.621094 291.519531 137.285156 288.039062 C 134.949219 284.554688 134.503906 280.136719 136.09375 276.257812 L 180.390625 168.160156 C 181.574219 165.273438 184.382812 163.390625 187.5 163.390625 C 190.617188 163.390625 193.425781 165.273438 194.609375 168.160156 Z M 194.609375 168.160156 " clip-rule="nonzero"/></clipPath><clipPath id="e2355a6a1b"><path d="M 74.535156 128 L 300.226562 128 L 300.226562 186.539062 L 74.535156 186.539062 Z M 74.535156 128 " clip-rule="nonzero"/></clipPath><clipPath id="172e1fac42"><path d="M 134 78.441406 L 242 78.441406 L 242 132 L 134 132 Z M 134 78.441406 " clip-rule="nonzero"/></clipPath><clipPath id="901ed1abdb"><path d="M 176.976562 85.632812 L 231.757812 85.632812 L 231.757812 140.414062 L 176.976562 140.414062 Z M 176.976562 85.632812 " clip-rule="nonzero"/></clipPath><clipPath id="50dd63121f"><path d="M 204.367188 85.632812 C 189.242188 85.632812 176.976562 97.894531 176.976562 113.023438 C 176.976562 128.148438 189.242188 140.414062 204.367188 140.414062 C 219.496094 140.414062 231.757812 128.148438 231.757812 113.023438 C 231.757812 97.894531 219.496094 85.632812 204.367188 85.632812 Z M 204.367188 85.632812 " clip-rule="nonzero"/></clipPath><clipPath id="4430cf41b8"><path d="M 175.390625 119.699219 L 199.648438 119.699219 L 199.648438 132.664062 L 175.390625 132.664062 Z M 175.390625 119.699219 " clip-rule="nonzero"/></clipPath><clipPath id="d25db567fd"><path d="M 183.46875 120.289062 C 184.707031 119.933594 186.121094 119.699219 187.507812 119.699219 C 188.890625 119.699219 190.226562 119.898438 191.453125 120.253906 C 191.480469 120.265625 191.503906 120.265625 191.53125 120.277344 C 196.144531 121.695312 199.542969 125.445312 199.609375 129.558594 L 199.609375 132.664062 L 175.390625 132.664062 L 175.390625 129.558594 C 175.457031 125.421875 178.804688 121.675781 183.46875 120.289062 Z M 183.46875 120.289062 " clip-rule="nonzero"/></clipPath><clipPath id="c9e60285a7"><path d="M 172.761719 85.632812 L 201.976562 85.632812 L 201.976562 125.804688 L 172.761719 125.804688 Z M 172.761719 85.632812 " clip-rule="nonzero"/></clipPath><clipPath id="a53a89e060"><path d="M 183 242 L 218 242 L 218 273 L 183 273 Z M 183 242 " clip-rule="nonzero"/></clipPath><clipPath id="6c6f6ff9ed"><path d="M 139.445312 239.332031 L 197.785156 194.183594 L 235.332031 242.703125 L 176.992188 287.851562 Z M 139.445312 239.332031 " clip-rule="nonzero"/></clipPath><clipPath id="1592a95620"><path d="M 139.445312 239.332031 L 197.785156 194.183594 L 235.332031 242.703125 L 176.992188 287.851562 Z M 139.445312 239.332031 " clip-rule="nonzero"/></clipPath><clipPath id="91a576ba2c"><path d="M 162 213 L 200 213 L 200 251 L 162 251 Z M 162 213 " clip-rule="nonzero"/></clipPath><clipPath id="de5e665044"><path d="M 139.445312 239.332031 L 197.785156 194.183594 L 235.332031 242.703125 L 176.992188 287.851562 Z M 139.445312 239.332031 " clip-rule="nonzero"/></clipPath><clipPath id="171b8a7399"><path d="M 139.445312 239.332031 L 197.785156 194.183594 L 235.332031 242.703125 L 176.992188 287.851562 Z M 139.445312 239.332031 " clip-rule="nonzero"/></clipPath><clipPath id="2ad5888869"><path d="M 157 208 L 204 208 L 204 255 L 157 255 Z M 157 208 " clip-rule="nonzero"/></clipPath><clipPath id="b872fc7986"><path d="M 139.445312 239.332031 L 197.785156 194.183594 L 235.332031 242.703125 L 176.992188 287.851562 Z M 139.445312 239.332031 " clip-rule="nonzero"/></clipPath><clipPath id="3ff9a42282"><path d="M 139.445312 239.332031 L 197.785156 194.183594 L 235.332031 242.703125 L 176.992188 287.851562 Z M 139.445312 239.332031 " clip-rule="nonzero"/></clipPath><clipPath id="c53d042a03"><path d="M 150.585938 230.707031 L 187.09375 202.457031 L 213.160156 236.140625 L 176.65625 264.390625 Z M 150.585938 230.707031 " clip-rule="nonzero"/></clipPath><clipPath id="9b8aaf4881"><path d="M 150.597656 230.71875 L 187.101562 202.46875 L 213.160156 236.140625 L 176.65625 264.390625 Z M 150.597656 230.71875 " clip-rule="nonzero"/></clipPath><clipPath id="ec32af8d4b"><path d="M 172 223 L 189 223 L 189 241 L 172 241 Z M 172 223 " clip-rule="nonzero"/></clipPath><clipPath id="5b47e2d72a"><path d="M 139.445312 239.332031 L 197.785156 194.183594 L 235.332031 242.703125 L 176.992188 287.851562 Z M 139.445312 239.332031 " clip-rule="nonzero"/></clipPath><clipPath id="eb4cc97bd6"><path d="M 139.445312 239.332031 L 197.785156 194.183594 L 235.332031 242.703125 L 176.992188 287.851562 Z M 139.445312 239.332031 " clip-rule="nonzero"/></clipPath></defs><g clip-path="url(#43e26a885d)"><g clip-path="url(#02c578dd23)"><g clip-path="url(#2af5eb513f)"><path fill="#fdd000" d="M 0 186.511719 L 187.742188 -1.230469 L 374.753906 185.78125 L 187.011719 373.523438 Z M 0 186.511719 " fill-opacity="1" fill-rule="nonzero"/></g></g></g><g clip-path="url(#1bedec1333)"><g clip-path="url(#122ab1dbc2)"><g clip-path="url(#5310ae01f4)"><path fill="#fdd000" d="M 14.894531 186.472656 L 187.726562 13.640625 L 359.882812 185.796875 L 187.050781 358.628906 Z M 14.894531 186.472656 " fill-opacity="1" fill-rule="nonzero"/></g></g></g><g clip-path="url(#3b543375d9)"><g clip-path="url(#6cfba09536)"><g clip-path="url(#8829ea2d3e)"><g clip-path="url(#530af2836e)"><path stroke-linecap="butt" transform="matrix(0.53033, -0.53033, 0.53033, 0.53033, 14.896586, 186.469457)" fill="none" stroke-linejoin="miter" d="M 20.000277 0.00107984 L 306.308567 -0.00260301 C 311.611868 -0.00260301 316.697881 2.107669 320.447021 5.856808 C 324.199843 9.60963 326.310115 14.695644 326.310115 19.998945 L 326.306432 304.613125 C 326.306432 309.916426 324.199843 314.998756 320.447021 318.751578 C 316.697881 322.500718 311.611868 324.610989 306.308567 324.610989 L 20.000277 324.607307 C 8.955416 324.610989 -0.00127071 315.654303 0.00241213 304.609442 L 0.00241213 19.998945 C -0.00127071 8.954083 8.951733 0.00107984 20.000277 0.00107984 Z M 20.000277 0.00107984 " stroke="#231815" stroke-width="20" stroke-opacity="1" stroke-miterlimit="4"/></g></g></g></g><g clip-path="url(#0cc801da88)"><g clip-path="url(#a0fc0f7b33)"><path fill="#231815" d="M 128.984375 150.808594 L 246.015625 150.808594 L 246.015625 293.445312 L 128.984375 293.445312 Z M 128.984375 150.808594 " fill-opacity="1" fill-rule="nonzero"/></g></g><g clip-path="url(#e2355a6a1b)"><path fill="#231815" d="M 300.402344 157.582031 C 300.402344 173.746094 249.847656 186.855469 187.488281 186.855469 C 125.132812 186.855469 74.578125 173.753906 74.578125 157.582031 C 74.578125 141.414062 125.132812 128.3125 187.488281 128.3125 C 249.847656 128.3125 300.402344 141.417969 300.402344 157.582031 Z M 300.402344 157.582031 " fill-opacity="1" fill-rule="nonzero"/></g><g clip-path="url(#172e1fac42)"><path fill="#231815" d="M 134.589844 131.902344 C 134.589844 102.378906 158.53125 78.441406 188.054688 78.441406 C 217.578125 78.441406 241.515625 102.378906 241.515625 131.902344 Z M 134.589844 131.902344 " fill-opacity="1" fill-rule="nonzero"/></g><path fill="#fdd000" d="M 140.429688 157.582031 C 140.429688 163.847656 135.347656 168.925781 129.085938 168.925781 C 122.824219 168.925781 117.746094 163.847656 117.746094 157.582031 C 117.746094 151.320312 122.824219 146.242188 129.085938 146.242188 C 135.347656 146.242188 140.429688 151.320312 140.429688 157.582031 Z M 188.054688 146.246094 C 181.789062 146.246094 176.710938 151.324219 176.710938 157.589844 C 176.710938 163.851562 181.789062 168.929688 188.054688 168.929688 C 194.316406 168.929688 199.394531 163.851562 199.394531 157.589844 C 199.394531 151.320312 194.316406 146.246094 188.054688 146.246094 Z M 247.019531 146.246094 C 240.757812 146.246094 235.679688 151.324219 235.679688 157.589844 C 235.679688 163.851562 240.757812 168.929688 247.019531 168.929688 C 253.28125 168.929688 258.363281 163.851562 258.363281 157.589844 C 258.363281 151.320312 253.28125 146.246094 247.019531 146.246094 Z M 211.007812 118.304688 C 205.0625 118.304688 200.242188 113.488281 200.242188 107.542969 C 200.242188 113.488281 195.425781 118.304688 189.480469 118.304688 C 195.425781 118.304688 200.242188 123.125 200.242188 129.070312 C 200.242188 123.125 205.0625 118.304688 211.007812 118.304688 Z M 226.648438 101.695312 C 219.101562 101.695312 212.980469 95.574219 212.980469 88.027344 C 212.980469 95.574219 206.859375 101.695312 199.3125 101.695312 C 206.859375 101.695312 212.980469 107.816406 212.980469 115.363281 C 212.980469 107.8125 219.101562 101.695312 226.648438 101.695312 Z M 226.648438 101.695312 " fill-opacity="1" fill-rule="nonzero"/><g clip-path="url(#901ed1abdb)"><g clip-path="url(#50dd63121f)"><path fill="#231815" d="M 176.976562 85.632812 L 231.757812 85.632812 L 231.757812 140.414062 L 176.976562 140.414062 Z M 176.976562 85.632812 " fill-opacity="1" fill-rule="nonzero"/></g></g><g clip-path="url(#4430cf41b8)"><g clip-path="url(#d25db567fd)"><path fill="#fdd000" d="M 175.390625 119.699219 L 199.597656 119.699219 L 199.597656 132.664062 L 175.390625 132.664062 Z M 175.390625 119.699219 " fill-opacity="1" fill-rule="nonzero"/></g></g><g clip-path="url(#c9e60285a7)"><path fill="#fdd000" d="M 187.644531 85.632812 C 184.367188 85.632812 179.796875 86.753906 176.859375 90.410156 C 174.035156 93.921875 172.777344 99.863281 172.777344 105.171875 C 172.777344 109.917969 175.523438 114.191406 177.925781 117.730469 C 181.011719 122.269531 184.238281 125.464844 187.851562 125.464844 C 191.398438 125.464844 194.972656 121.457031 197.800781 117.066406 C 200.085938 113.511719 202.207031 109.398438 202.207031 104.550781 C 202.207031 99.566406 201.910156 95.136719 199.46875 91.671875 C 198.140625 89.789062 196.582031 88.273438 194.589844 87.273438 C 192.28125 86.121094 189.503906 85.632812 187.644531 85.632812 Z M 174.941406 106.390625 C 185.488281 108.269531 185.730469 116.425781 186.050781 116.523438 C 185.882812 116.527344 176.257812 116.761719 174.941406 106.390625 Z M 200.226562 106.441406 C 197.328125 116.722656 189.226562 116.199219 189.054688 116.507812 C 189.054688 116.507812 189.050781 116.523438 189.050781 116.523438 C 189.050781 116.519531 189.050781 116.511719 189.054688 116.507812 C 189.070312 116.308594 189.789062 106.734375 200.226562 106.441406 Z M 200.226562 106.441406 " fill-opacity="1" fill-rule="nonzero"/></g><g clip-path="url(#a53a89e060)"><g clip-path="url(#6c6f6ff9ed)"><g clip-path="url(#1592a95620)"><path fill="#fdd000" d="M 187.421875 255.835938 L 202.089844 244.488281 C 202.332031 244.300781 202.578125 244.125 202.835938 243.964844 C 203.09375 243.804688 203.359375 243.65625 203.628906 243.519531 C 203.902344 243.382812 204.179688 243.261719 204.464844 243.15625 C 204.746094 243.046875 205.035156 242.953125 205.328125 242.871094 C 205.621094 242.792969 205.917969 242.726562 206.21875 242.675781 C 206.515625 242.625 206.816406 242.589844 207.121094 242.570312 C 207.421875 242.546875 207.726562 242.542969 208.03125 242.550781 C 208.332031 242.558594 208.636719 242.582031 208.9375 242.621094 C 209.238281 242.660156 209.539062 242.710938 209.832031 242.78125 C 210.128906 242.847656 210.421875 242.929688 210.710938 243.027344 C 210.996094 243.121094 211.28125 243.234375 211.558594 243.359375 C 211.835938 243.480469 212.105469 243.621094 212.367188 243.769531 C 212.632812 243.921875 212.886719 244.082031 213.136719 244.261719 C 213.382812 244.433594 213.621094 244.625 213.851562 244.824219 C 214.078125 245.023438 214.296875 245.230469 214.507812 245.453125 C 214.714844 245.671875 214.914062 245.902344 215.097656 246.144531 C 215.285156 246.382812 215.457031 246.632812 215.621094 246.890625 C 215.78125 247.148438 215.929688 247.414062 216.0625 247.683594 C 216.199219 247.957031 216.320312 248.234375 216.429688 248.519531 C 216.539062 248.800781 216.632812 249.089844 216.710938 249.382812 C 216.792969 249.675781 216.855469 249.972656 216.90625 250.273438 C 216.957031 250.570312 216.992188 250.871094 217.015625 251.175781 C 217.035156 251.476562 217.042969 251.78125 217.035156 252.085938 C 217.023438 252.386719 217 252.691406 216.964844 252.992188 C 216.925781 253.292969 216.871094 253.59375 216.804688 253.886719 C 216.738281 254.183594 216.652344 254.476562 216.558594 254.765625 C 216.460938 255.050781 216.351562 255.335938 216.226562 255.613281 C 216.101562 255.890625 215.964844 256.160156 215.816406 256.421875 C 215.664062 256.6875 215.5 256.941406 215.324219 257.191406 C 215.148438 257.4375 214.960938 257.675781 214.761719 257.90625 C 214.5625 258.132812 214.351562 258.351562 214.132812 258.5625 C 213.910156 258.769531 213.679688 258.96875 213.441406 259.152344 L 198.773438 270.503906 C 198.53125 270.6875 198.285156 270.863281 198.027344 271.023438 C 197.769531 271.1875 197.503906 271.332031 197.234375 271.46875 C 196.960938 271.605469 196.683594 271.726562 196.398438 271.835938 C 196.117188 271.941406 195.828125 272.035156 195.535156 272.117188 C 195.242188 272.195312 194.945312 272.261719 194.644531 272.3125 C 194.347656 272.363281 194.046875 272.398438 193.742188 272.417969 C 193.441406 272.441406 193.136719 272.445312 192.832031 272.4375 C 192.527344 272.429688 192.226562 272.40625 191.925781 272.367188 C 191.625 272.328125 191.324219 272.277344 191.03125 272.207031 C 190.734375 272.140625 190.441406 272.058594 190.152344 271.960938 C 189.867188 271.867188 189.582031 271.753906 189.304688 271.632812 C 189.027344 271.507812 188.757812 271.371094 188.496094 271.21875 C 188.230469 271.066406 187.976562 270.90625 187.726562 270.730469 C 187.480469 270.554688 187.242188 270.367188 187.011719 270.167969 C 186.785156 269.964844 186.566406 269.757812 186.355469 269.535156 C 186.148438 269.316406 185.949219 269.085938 185.765625 268.84375 C 185.578125 268.605469 185.40625 268.355469 185.246094 268.097656 C 185.082031 267.839844 184.933594 267.574219 184.796875 267.304688 C 184.664062 267.03125 184.542969 266.753906 184.433594 266.472656 C 184.324219 266.1875 184.230469 265.898438 184.152344 265.605469 C 184.070312 265.3125 184.007812 265.015625 183.957031 264.71875 C 183.90625 264.417969 183.867188 264.117188 183.847656 263.8125 C 183.828125 263.511719 183.820312 263.207031 183.828125 262.902344 C 183.839844 262.601562 183.863281 262.296875 183.898438 261.996094 C 183.9375 261.695312 183.992188 261.398438 184.058594 261.101562 C 184.125 260.804688 184.207031 260.511719 184.304688 260.226562 C 184.402344 259.9375 184.511719 259.65625 184.636719 259.378906 C 184.761719 259.101562 184.898438 258.828125 185.050781 258.566406 C 185.199219 258.304688 185.363281 258.046875 185.539062 257.800781 C 185.714844 257.550781 185.902344 257.3125 186.101562 257.082031 C 186.300781 256.855469 186.511719 256.636719 186.730469 256.425781 C 186.953125 256.21875 187.183594 256.023438 187.421875 255.835938 Z M 187.421875 255.835938 " fill-opacity="1" fill-rule="nonzero"/></g></g></g><g clip-path="url(#91a576ba2c)"><g clip-path="url(#de5e665044)"><g clip-path="url(#171b8a7399)"><path fill="#fdd000" d="M 195.347656 220.625 C 195.535156 220.863281 195.714844 221.109375 195.886719 221.359375 C 196.0625 221.605469 196.230469 221.859375 196.390625 222.117188 C 196.550781 222.375 196.707031 222.632812 196.855469 222.898438 C 197.003906 223.164062 197.144531 223.433594 197.28125 223.703125 C 197.417969 223.976562 197.546875 224.25 197.667969 224.527344 C 197.789062 224.804688 197.90625 225.085938 198.011719 225.371094 C 198.121094 225.652344 198.222656 225.941406 198.316406 226.230469 C 198.410156 226.515625 198.496094 226.808594 198.578125 227.101562 C 198.65625 227.394531 198.730469 227.6875 198.792969 227.984375 C 198.859375 228.28125 198.917969 228.578125 198.96875 228.878906 C 199.019531 229.175781 199.0625 229.476562 199.097656 229.78125 C 199.132812 230.082031 199.160156 230.382812 199.183594 230.683594 C 199.203125 230.988281 199.21875 231.292969 199.222656 231.59375 C 199.230469 231.898438 199.230469 232.203125 199.21875 232.503906 C 199.210938 232.808594 199.195312 233.113281 199.171875 233.414062 C 199.148438 233.71875 199.117188 234.019531 199.078125 234.320312 C 199.039062 234.621094 198.996094 234.921875 198.941406 235.21875 C 198.886719 235.519531 198.828125 235.816406 198.761719 236.109375 C 198.691406 236.40625 198.617188 236.699219 198.535156 236.992188 C 198.453125 237.285156 198.363281 237.574219 198.269531 237.863281 C 198.171875 238.152344 198.070312 238.4375 197.957031 238.71875 C 197.847656 239 197.730469 239.28125 197.605469 239.558594 C 197.480469 239.835938 197.351562 240.109375 197.214844 240.378906 C 197.078125 240.652344 196.933594 240.917969 196.78125 241.179688 C 196.628906 241.445312 196.472656 241.703125 196.308594 241.960938 C 196.144531 242.214844 195.976562 242.46875 195.800781 242.714844 C 195.625 242.960938 195.445312 243.207031 195.257812 243.445312 C 195.066406 243.683594 194.875 243.914062 194.675781 244.144531 C 194.476562 244.375 194.273438 244.597656 194.0625 244.816406 C 193.851562 245.035156 193.636719 245.25 193.414062 245.457031 C 193.195312 245.667969 192.96875 245.871094 192.738281 246.066406 C 192.507812 246.265625 192.273438 246.457031 192.03125 246.640625 C 191.792969 246.828125 191.546875 247.007812 191.300781 247.179688 C 191.050781 247.355469 190.796875 247.523438 190.539062 247.683594 C 190.285156 247.84375 190.023438 248 189.757812 248.148438 C 189.492188 248.296875 189.222656 248.4375 188.953125 248.574219 C 188.679688 248.707031 188.40625 248.835938 188.128906 248.960938 C 187.851562 249.082031 187.570312 249.195312 187.285156 249.304688 C 187.003906 249.410156 186.714844 249.511719 186.425781 249.605469 C 186.140625 249.703125 185.847656 249.789062 185.554688 249.867188 C 185.261719 249.949219 184.96875 250.019531 184.671875 250.085938 C 184.375 250.152344 184.078125 250.207031 183.777344 250.257812 C 183.480469 250.308594 183.179688 250.351562 182.878906 250.390625 C 182.574219 250.425781 182.273438 250.453125 181.972656 250.472656 C 181.667969 250.496094 181.367188 250.511719 181.0625 250.515625 C 180.757812 250.523438 180.457031 250.519531 180.152344 250.511719 C 179.847656 250.503906 179.546875 250.488281 179.242188 250.464844 C 178.941406 250.441406 178.636719 250.410156 178.335938 250.371094 C 178.035156 250.332031 177.734375 250.289062 177.4375 250.234375 C 177.140625 250.179688 176.839844 250.121094 176.546875 250.050781 C 176.25 249.984375 175.957031 249.910156 175.664062 249.828125 C 175.371094 249.746094 175.082031 249.65625 174.792969 249.558594 C 174.503906 249.464844 174.21875 249.359375 173.9375 249.25 C 173.65625 249.140625 173.375 249.023438 173.097656 248.898438 C 172.820312 248.773438 172.546875 248.644531 172.277344 248.503906 C 172.007812 248.367188 171.738281 248.222656 171.476562 248.074219 C 171.210938 247.921875 170.953125 247.765625 170.695312 247.601562 C 170.441406 247.4375 170.191406 247.269531 169.941406 247.09375 C 169.695312 246.917969 169.453125 246.734375 169.214844 246.546875 C 168.976562 246.359375 168.742188 246.167969 168.511719 245.96875 C 168.28125 245.769531 168.058594 245.5625 167.839844 245.355469 C 167.621094 245.144531 167.40625 244.929688 167.199219 244.707031 C 166.992188 244.488281 166.789062 244.261719 166.589844 244.03125 C 166.394531 243.800781 166.203125 243.5625 166.015625 243.324219 C 165.832031 243.085938 165.652344 242.839844 165.476562 242.589844 C 165.304688 242.34375 165.136719 242.089844 164.972656 241.832031 C 164.8125 241.574219 164.65625 241.3125 164.507812 241.050781 C 164.359375 240.785156 164.21875 240.515625 164.082031 240.246094 C 163.949219 239.972656 163.820312 239.699219 163.699219 239.421875 C 163.574219 239.144531 163.460938 238.863281 163.351562 238.578125 C 163.246094 238.292969 163.144531 238.007812 163.050781 237.71875 C 162.957031 237.429688 162.867188 237.140625 162.789062 236.847656 C 162.707031 236.554688 162.636719 236.261719 162.570312 235.964844 C 162.503906 235.667969 162.449219 235.371094 162.398438 235.070312 C 162.347656 234.769531 162.304688 234.46875 162.265625 234.167969 C 162.230469 233.867188 162.203125 233.566406 162.183594 233.261719 C 162.160156 232.960938 162.148438 232.65625 162.140625 232.355469 C 162.136719 232.050781 162.136719 231.746094 162.144531 231.445312 C 162.152344 231.140625 162.167969 230.835938 162.191406 230.535156 C 162.214844 230.230469 162.246094 229.929688 162.285156 229.628906 C 162.324219 229.328125 162.371094 229.027344 162.421875 228.730469 C 162.476562 228.429688 162.535156 228.132812 162.605469 227.835938 C 162.671875 227.542969 162.746094 227.246094 162.828125 226.953125 C 162.910156 226.664062 163 226.371094 163.097656 226.085938 C 163.195312 225.796875 163.296875 225.511719 163.40625 225.230469 C 163.515625 224.945312 163.636719 224.667969 163.757812 224.390625 C 163.882812 224.113281 164.015625 223.839844 164.152344 223.566406 C 164.289062 223.296875 164.433594 223.03125 164.585938 222.769531 C 164.734375 222.503906 164.890625 222.246094 165.054688 221.988281 C 165.21875 221.734375 165.386719 221.480469 165.5625 221.234375 C 165.738281 220.988281 165.921875 220.742188 166.109375 220.503906 C 166.296875 220.265625 166.488281 220.03125 166.691406 219.804688 C 166.886719 219.574219 167.09375 219.351562 167.304688 219.132812 C 167.511719 218.914062 167.730469 218.699219 167.949219 218.492188 C 168.171875 218.28125 168.394531 218.078125 168.625 217.882812 C 168.855469 217.683594 169.09375 217.492188 169.332031 217.308594 C 169.574219 217.121094 169.816406 216.941406 170.066406 216.769531 C 170.3125 216.59375 170.566406 216.425781 170.824219 216.265625 C 171.082031 216.105469 171.34375 215.949219 171.609375 215.800781 C 171.871094 215.652344 172.140625 215.511719 172.410156 215.375 C 172.683594 215.238281 172.957031 215.109375 173.238281 214.988281 C 173.515625 214.867188 173.792969 214.753906 174.078125 214.644531 C 174.363281 214.535156 174.648438 214.433594 174.9375 214.339844 C 175.226562 214.246094 175.515625 214.160156 175.808594 214.082031 C 176.101562 214 176.398438 213.929688 176.691406 213.863281 C 176.988281 213.796875 177.289062 213.738281 177.585938 213.6875 C 177.886719 213.636719 178.1875 213.59375 178.488281 213.558594 C 178.789062 213.523438 179.089844 213.496094 179.394531 213.472656 C 179.695312 213.453125 180 213.4375 180.304688 213.433594 C 180.605469 213.425781 180.910156 213.425781 181.214844 213.4375 C 181.515625 213.445312 181.820312 213.460938 182.121094 213.484375 C 182.425781 213.507812 182.726562 213.539062 183.027344 213.578125 C 183.328125 213.617188 183.628906 213.664062 183.925781 213.714844 C 184.226562 213.769531 184.523438 213.828125 184.820312 213.894531 C 185.117188 213.964844 185.410156 214.039062 185.703125 214.121094 C 185.992188 214.203125 186.285156 214.292969 186.570312 214.390625 C 186.859375 214.484375 187.144531 214.589844 187.425781 214.699219 C 187.710938 214.808594 187.988281 214.925781 188.265625 215.050781 C 188.542969 215.175781 188.816406 215.304688 189.089844 215.441406 C 189.359375 215.582031 189.625 215.726562 189.890625 215.875 C 190.152344 216.027344 190.414062 216.183594 190.667969 216.347656 C 190.925781 216.511719 191.175781 216.679688 191.421875 216.855469 C 191.671875 217.03125 191.914062 217.214844 192.152344 217.402344 C 192.390625 217.589844 192.625 217.78125 192.851562 217.980469 C 193.082031 218.179688 193.304688 218.386719 193.523438 218.59375 C 193.746094 218.804688 193.957031 219.019531 194.164062 219.242188 C 194.375 219.460938 194.578125 219.6875 194.773438 219.917969 C 194.972656 220.148438 195.164062 220.382812 195.347656 220.625 Z M 195.347656 220.625 " fill-opacity="1" fill-rule="nonzero"/></g></g></g><g clip-path="url(#2ad5888869)"><g clip-path="url(#b872fc7986)"><g clip-path="url(#3ff9a42282)"><g clip-path="url(#c53d042a03)"><g clip-path="url(#9b8aaf4881)"><path stroke-linecap="butt" transform="matrix(0.0572924, -0.0443364, 0.0443364, 0.0572924, 135.686144, 234.434281)" fill="none" stroke-linejoin="miter" d="M 773.005219 353.281513 C 772.973095 357.552053 772.865328 361.832235 772.714918 366.079417 C 772.488863 370.336243 772.187166 374.602712 771.734181 378.888467 C 771.314197 383.13158 770.775925 387.351335 770.16201 391.580733 C 769.548096 395.810132 768.815894 400.016174 767.965405 404.198859 C 767.15756 408.414544 766.221784 412.531229 765.177365 416.7002 C 764.132946 420.869171 763.00324 424.972143 761.755247 429.051757 C 760.507255 433.131371 759.183618 437.220629 757.732052 441.210886 C 756.323129 445.234144 754.753275 449.201044 753.140778 453.134945 C 751.495282 457.111489 749.764498 461.022032 747.948427 464.866576 C 746.132357 468.711119 744.197999 472.532306 742.178355 476.287492 C 740.168354 480.118322 738.063423 483.807508 735.873206 487.430694 C 733.692631 491.129524 731.384126 494.729353 728.990335 498.263182 C 726.639187 501.830011 724.202752 505.330839 721.638387 508.732668 C 719.083665 512.21014 716.434013 515.545968 713.741718 518.848796 C 711.049423 522.151625 708.271841 525.388453 705.408972 528.55928 C 702.546103 531.730108 699.555304 534.801935 696.554862 537.798119 C 693.521419 540.836947 690.43569 543.76713 687.307318 546.664314 C 684.136302 549.528497 680.879999 552.326681 677.57141 555.01622 C 674.305464 557.73876 670.911587 560.3623 667.508068 562.910195 C 664.028905 565.467735 660.573099 567.906987 656.999006 570.322883 C 653.457913 572.696135 649.864533 574.960743 646.185867 577.159351 C 642.5072 579.35796 638.776247 581.447924 635.035651 583.462246 C 631.295054 585.476567 627.426527 587.391888 623.581358 589.188922 C 619.745831 591.061599 615.815375 592.792633 611.908275 594.40538 C 607.925532 596.02777 603.933145 597.574516 599.931115 599.045619 C 595.919442 600.441079 591.865125 601.803539 587.758522 603.057354 C 583.684919 604.268527 579.568672 605.446699 575.433139 606.473585 C 571.297606 607.50047 567.109786 608.418712 562.912323 609.26131 C 558.71486 610.103908 554.540754 610.82822 550.314361 611.443888 C 546.087968 612.059555 541.851932 612.599579 537.563609 613.03096 C 533.35093 613.452697 529.085963 613.765791 524.844354 613.960598 C 520.527101 614.165048 516.275849 614.284211 512.00531 614.252088 C 507.744414 614.295608 503.464231 614.18784 499.207406 613.961786 C 494.95058 613.735732 490.684111 613.434035 486.440999 613.01405 C 482.197887 612.594066 477.902488 612.065438 473.715733 611.484523 C 469.476691 610.794964 465.237649 610.105406 461.097607 609.287917 C 456.914923 608.437429 452.722594 607.511296 448.553623 606.466877 C 444.460295 605.412815 440.31468 604.250109 436.202066 603.04476 C 432.122451 601.796767 428.108837 600.463487 424.08558 599.054564 C 420.052679 597.569997 416.052778 596.042787 412.118878 594.430291 C 408.142334 592.784794 404.264791 591.011367 400.387247 589.23794 C 396.575704 587.379226 392.721517 585.487512 388.966331 583.467867 C 385.211144 581.448223 381.521958 579.343292 377.823129 577.162718 C 374.157299 574.9395 370.52447 572.673639 366.990641 570.279847 C 363.423812 567.928699 359.955983 565.449621 356.521155 562.927899 C 353.119326 560.363534 349.750498 557.756526 346.405026 555.03123 C 343.102198 552.338935 339.89837 549.518709 336.727543 546.655841 C 333.556715 543.792972 330.451887 540.844816 327.455704 537.844374 C 324.416876 534.810931 321.486693 531.725202 318.622509 528.554186 C 315.758326 525.38317 312.960142 522.126868 310.237602 518.860922 C 307.548063 515.552332 304.891523 512.2011 302.376627 508.754937 C 299.828732 505.351417 297.379836 501.819967 295.006584 498.278874 C 292.633332 494.737782 290.32608 491.111402 288.127471 487.432735 C 285.938506 483.829712 283.848542 480.098759 281.791577 476.325163 C 279.810256 472.541923 277.904579 468.74904 276.064901 464.87087 C 274.225224 460.9927 272.503833 457.137887 270.881443 453.155144 C 269.226053 449.215044 267.679306 445.222657 266.283847 441.210984 C 264.812744 437.208954 263.483284 433.111994 262.272112 429.038391 C 260.985296 424.974431 259.882767 420.848541 258.813238 416.680008 C 257.786353 412.544475 256.835111 408.399299 255.992513 404.201836 C 255.192558 400.037373 254.458603 395.787623 253.842935 391.56123 C 253.194268 387.37748 252.687243 383.098801 252.265506 378.886121 C 251.834125 374.597798 251.521032 370.332832 251.326225 366.091223 C 251.088775 361.816614 251.002611 357.522718 251.001735 353.294822 C 250.991215 348.991282 251.098983 344.7111 251.325037 340.454274 C 251.551091 336.197449 251.852788 331.93098 252.272773 327.687868 C 252.692757 323.444756 253.188385 319.192 253.8023 314.962602 C 254.458858 310.766203 255.19106 306.560161 255.998906 302.344476 C 256.849394 298.161791 257.775526 293.969463 258.829589 289.876135 C 259.874008 285.707164 261.003714 281.604193 262.251707 277.524578 C 263.457056 273.411964 264.823336 269.355706 266.274902 265.365449 C 267.683825 261.342191 269.211035 257.342291 270.899176 253.398747 C 272.511673 249.464846 274.242456 245.554303 276.058527 241.709759 C 277.907597 237.822573 279.766311 234.011029 281.785955 230.255843 C 283.8386 226.458013 285.943531 222.768827 288.124105 219.069997 C 290.314323 215.446812 292.622828 211.846982 294.973976 208.280153 C 297.367767 204.746324 299.804202 201.245496 302.325924 197.810667 C 304.923289 194.366195 307.530297 190.997367 310.222593 187.694539 C 312.957531 184.424711 315.735113 181.187883 318.597982 178.017055 C 321.460851 174.846227 324.409007 171.7414 327.442449 168.702572 C 330.442891 165.706388 333.561621 162.733561 336.732637 159.869378 C 339.903653 157.005194 343.126955 154.249654 346.392901 151.527115 C 349.734491 148.794932 353.095367 146.214036 356.531886 143.623496 C 359.935406 141.0756 363.466855 138.626705 367.007948 136.253453 C 370.549041 133.8802 374.142421 131.615592 377.821088 129.416984 C 381.499754 127.218375 385.188064 125.095411 388.971304 123.11409 C 392.7119 121.099768 396.537783 119.151447 400.382953 117.354413 C 404.261123 115.514736 408.191579 113.783702 412.131679 112.128312 C 416.038779 110.515565 420.031166 108.968819 424.075839 107.530716 C 428.120512 106.092613 432.141829 104.772797 436.248432 103.518981 C 440.322035 102.307808 444.438282 101.129636 448.573815 100.10275 C 452.709348 99.075865 456.897168 98.157623 461.094631 97.315025 C 465.292094 96.472427 469.4662 95.748115 473.725593 95.089804 C 477.951986 94.474136 482.155022 93.976756 486.443345 93.545375 C 490.656025 93.123638 494.920991 92.810544 499.1956 92.573094 C 503.437209 92.378287 507.731105 92.292124 511.992001 92.248604 C 516.26254 92.280728 520.542723 92.388495 524.799548 92.614549 C 529.089374 92.797959 533.322843 93.1423 537.598955 93.519642 C 541.842067 93.939626 546.061823 94.477897 550.291221 95.091812 C 554.52062 95.705727 558.726662 96.437929 562.909347 97.288418 C 567.092032 98.138906 571.28436 99.065039 575.410688 100.076458 C 579.546659 101.16352 583.68263 102.250583 587.762245 103.498575 C 591.841859 104.746568 595.898117 106.112848 599.921374 107.521771 C 603.954275 109.006338 607.954176 110.533548 611.888076 112.146045 C 615.821977 113.758541 619.73252 115.489325 623.619707 117.338396 C 627.46425 119.154466 631.285437 121.088824 635.040623 123.108468 C 638.79581 125.128112 642.517996 127.190399 646.183825 129.413617 C 649.849655 131.636835 653.482484 133.902697 656.973669 136.263488 C 660.583142 138.647636 664.050971 141.126714 667.485799 143.648436 C 670.920628 146.170158 674.256456 148.81981 677.559284 151.512105 C 680.904756 154.2374 684.141584 157.014982 687.279411 159.920495 C 690.450239 162.783363 693.512423 165.698519 696.551251 168.731961 C 699.547434 171.732404 702.520262 174.851133 705.384445 178.022149 C 708.281629 181.150521 711.037168 184.373824 713.769352 187.715413 C 716.458891 191.024003 719.115431 194.375236 721.630327 197.821399 C 724.178223 201.224918 726.660118 204.713724 729.00037 208.297461 C 731.373622 211.838554 733.638231 215.431933 735.869839 219.067956 C 738.068448 222.746623 740.158412 226.477576 742.215377 230.251172 C 744.196698 234.034412 746.102375 237.827295 747.942053 241.705465 C 749.739087 245.550635 751.503121 249.438448 753.125511 253.421192 C 754.780901 257.361291 756.285004 261.320678 757.723107 265.365351 C 759.19421 269.367381 760.55667 273.421698 761.767842 277.495301 C 763.021658 281.601904 764.124187 285.727794 765.193716 289.896327 C 766.220601 294.03186 767.171843 298.177036 767.971798 302.341499 C 768.814396 306.538963 769.548351 310.788712 770.197019 314.972462 C 770.812686 319.198855 771.352711 323.434891 771.741448 327.690214 C 772.130185 331.945537 772.443279 336.210503 772.680729 340.485112 C 772.875536 344.726722 772.994699 348.977974 773.005219 353.281513 Z M 773.005219 353.281513 " stroke="#000000" stroke-width="10" stroke-opacity="0.2" stroke-miterlimit="4"/></g></g></g></g></g><g clip-path="url(#ec32af8d4b)"><g clip-path="url(#5b47e2d72a)"><g clip-path="url(#eb4cc97bd6)"><path fill="#231815" d="M 187.253906 226.890625 C 187.417969 227.105469 187.574219 227.328125 187.71875 227.558594 C 187.863281 227.789062 187.996094 228.027344 188.117188 228.269531 C 188.242188 228.511719 188.347656 228.761719 188.445312 229.015625 C 188.542969 229.269531 188.628906 229.527344 188.699219 229.792969 C 188.769531 230.054688 188.828125 230.320312 188.875 230.585938 C 188.917969 230.855469 188.953125 231.125 188.972656 231.398438 C 188.988281 231.667969 188.996094 231.941406 188.988281 232.210938 C 188.980469 232.484375 188.957031 232.753906 188.925781 233.023438 C 188.890625 233.296875 188.84375 233.5625 188.78125 233.828125 C 188.722656 234.09375 188.648438 234.355469 188.5625 234.613281 C 188.472656 234.871094 188.375 235.125 188.265625 235.371094 C 188.152344 235.621094 188.03125 235.863281 187.894531 236.097656 C 187.761719 236.335938 187.613281 236.5625 187.457031 236.785156 C 187.296875 237.007812 187.128906 237.222656 186.949219 237.425781 C 186.773438 237.632812 186.585938 237.828125 186.386719 238.015625 C 186.1875 238.203125 185.984375 238.378906 185.769531 238.546875 C 185.550781 238.710938 185.328125 238.867188 185.097656 239.011719 C 184.867188 239.15625 184.632812 239.289062 184.386719 239.410156 C 184.144531 239.53125 183.894531 239.640625 183.640625 239.738281 C 183.386719 239.835938 183.128906 239.917969 182.867188 239.992188 C 182.601562 240.0625 182.339844 240.121094 182.070312 240.167969 C 181.800781 240.210938 181.53125 240.242188 181.261719 240.261719 C 180.988281 240.28125 180.71875 240.289062 180.445312 240.28125 C 180.171875 240.269531 179.902344 240.25 179.632812 240.214844 C 179.363281 240.183594 179.09375 240.132812 178.828125 240.074219 C 178.5625 240.011719 178.300781 239.9375 178.042969 239.851562 C 177.785156 239.765625 177.53125 239.667969 177.285156 239.554688 C 177.035156 239.445312 176.792969 239.320312 176.558594 239.1875 C 176.320312 239.050781 176.09375 238.90625 175.871094 238.746094 C 175.648438 238.589844 175.433594 238.421875 175.230469 238.242188 C 175.023438 238.066406 174.828125 237.875 174.640625 237.679688 C 174.457031 237.480469 174.277344 237.273438 174.113281 237.058594 C 173.945312 236.84375 173.789062 236.621094 173.644531 236.390625 C 173.5 236.160156 173.367188 235.921875 173.246094 235.679688 C 173.125 235.4375 173.015625 235.1875 172.917969 234.933594 C 172.820312 234.679688 172.738281 234.421875 172.667969 234.15625 C 172.59375 233.894531 172.535156 233.628906 172.492188 233.363281 C 172.445312 233.09375 172.414062 232.824219 172.394531 232.550781 C 172.375 232.28125 172.371094 232.007812 172.378906 231.734375 C 172.386719 231.464844 172.40625 231.195312 172.441406 230.925781 C 172.476562 230.652344 172.523438 230.386719 172.582031 230.121094 C 172.644531 229.855469 172.71875 229.59375 172.804688 229.335938 C 172.890625 229.078125 172.988281 228.824219 173.101562 228.578125 C 173.210938 228.328125 173.335938 228.085938 173.46875 227.851562 C 173.605469 227.613281 173.75 227.382812 173.910156 227.164062 C 174.066406 226.941406 174.234375 226.726562 174.414062 226.523438 C 174.59375 226.316406 174.78125 226.121094 174.976562 225.933594 C 175.175781 225.746094 175.382812 225.570312 175.597656 225.402344 C 175.8125 225.238281 176.035156 225.082031 176.265625 224.9375 C 176.496094 224.792969 176.734375 224.660156 176.976562 224.539062 C 177.222656 224.417969 177.46875 224.308594 177.722656 224.210938 C 177.976562 224.113281 178.238281 224.03125 178.5 223.957031 C 178.761719 223.886719 179.027344 223.828125 179.296875 223.78125 C 179.5625 223.738281 179.832031 223.707031 180.105469 223.6875 C 180.375 223.667969 180.648438 223.660156 180.921875 223.667969 C 181.191406 223.675781 181.464844 223.699219 181.734375 223.734375 C 182.003906 223.765625 182.269531 223.8125 182.535156 223.875 C 182.800781 223.9375 183.0625 224.007812 183.320312 224.09375 C 183.578125 224.183594 183.832031 224.28125 184.078125 224.394531 C 184.328125 224.503906 184.570312 224.628906 184.808594 224.761719 C 185.042969 224.898438 185.273438 225.042969 185.496094 225.203125 C 185.714844 225.359375 185.929688 225.527344 186.136719 225.707031 C 186.339844 225.882812 186.535156 226.070312 186.722656 226.269531 C 186.910156 226.46875 187.085938 226.675781 187.253906 226.890625 Z M 187.253906 226.890625 " fill-opacity="1" fill-rule="nonzero"/></g></g></g></svg>