<svg xmlns="http://www.w3.org/2000/svg" xmlns:xlink="http://www.w3.org/1999/xlink" width="500" zoomAndPan="magnify" viewBox="0 0 375 374.999991" height="500" preserveAspectRatio="xMidYMid meet" version="1.0"><defs><clipPath id="d953ff6aef"><path d="M 6 4 L 369 4 L 369 368 L 6 368 Z M 6 4 " clip-rule="nonzero"/></clipPath><clipPath id="c9246ab008"><path d="M 0 186.511719 L 188.472656 -1.960938 L 375.484375 185.050781 L 187.011719 373.523438 Z M 0 186.511719 " clip-rule="nonzero"/></clipPath><clipPath id="417456c58c"><path d="M 10.609375 175.90625 L 177.382812 9.128906 C 180.195312 6.316406 184.011719 4.734375 187.988281 4.734375 C 191.96875 4.734375 195.785156 6.316406 198.597656 9.128906 L 364.394531 174.925781 C 367.207031 177.738281 368.789062 181.554688 368.789062 185.53125 C 368.789062 189.511719 367.207031 193.328125 364.394531 196.140625 L 197.617188 362.914062 C 191.761719 368.773438 182.261719 368.773438 176.40625 362.914062 L 10.609375 197.117188 C 4.75 191.257812 4.75 181.761719 10.609375 175.90625 Z M 10.609375 175.90625 " clip-rule="nonzero"/></clipPath><clipPath id="d9392f0579"><path d="M 6 4 L 369 4 L 369 368 L 6 368 Z M 6 4 " clip-rule="nonzero"/></clipPath><clipPath id="479084b69a"><path d="M 0 186.511719 L 187.738281 -1.226562 L 374.945312 185.980469 L 187.207031 373.71875 Z M 0 186.511719 " clip-rule="nonzero"/></clipPath><clipPath id="5676b07246"><path d="M 0 186.511719 L 190.585938 -4.074219 L 381.167969 186.511719 L 190.585938 377.09375 Z M 0 186.511719 " clip-rule="nonzero"/></clipPath><clipPath id="617239a8f4"><path d="M 10.609375 175.90625 L 177.378906 9.132812 C 180.191406 6.320312 184.007812 4.738281 187.988281 4.738281 C 191.964844 4.738281 195.78125 6.320312 198.59375 9.132812 L 364.386719 174.925781 C 367.199219 177.738281 368.78125 181.554688 368.78125 185.53125 C 368.78125 189.511719 367.199219 193.328125 364.386719 196.140625 L 197.613281 362.910156 C 191.757812 368.769531 182.261719 368.769531 176.402344 362.910156 L 10.609375 197.117188 C 4.75 191.257812 4.75 181.761719 10.609375 175.90625 Z M 10.609375 175.90625 " clip-rule="nonzero"/></clipPath><clipPath id="c83e0d85b3"><path d="M 137 164.390625 L 238 164.390625 L 238 290 L 137 290 Z M 137 164.390625 " clip-rule="nonzero"/></clipPath><clipPath id="b641e43069"><path d="M 194.609375 169.386719 L 236.871094 272.511719 C 238.460938 276.394531 238.011719 280.808594 235.675781 284.292969 C 233.339844 287.773438 229.421875 289.863281 225.230469 289.863281 L 149.769531 289.863281 C 145.578125 289.863281 141.660156 287.773438 139.324219 284.292969 C 136.988281 280.808594 136.539062 276.394531 138.128906 272.511719 L 180.390625 169.386719 C 181.574219 166.5 184.382812 164.613281 187.5 164.613281 C 190.617188 164.613281 193.425781 166.5 194.609375 169.386719 Z M 194.609375 169.386719 " clip-rule="nonzero"/></clipPath><clipPath id="d3fdc3b137"><path d="M 78.46875 130 L 296.300781 130 L 296.300781 186.519531 L 78.46875 186.519531 Z M 78.46875 130 " clip-rule="nonzero"/></clipPath><clipPath id="9147db1013"><path d="M 136 82.1875 L 240 82.1875 L 240 134 L 136 134 Z M 136 82.1875 " clip-rule="nonzero"/></clipPath><clipPath id="5e00001311"><path d="M 177.34375 89.128906 L 230.214844 89.128906 L 230.214844 142 L 177.34375 142 Z M 177.34375 89.128906 " clip-rule="nonzero"/></clipPath><clipPath id="72d9e40e26"><path d="M 203.78125 89.128906 C 189.179688 89.128906 177.34375 100.964844 177.34375 115.566406 C 177.34375 130.164062 189.179688 142 203.78125 142 C 218.378906 142 230.214844 130.164062 230.214844 115.566406 C 230.214844 100.964844 218.378906 89.128906 203.78125 89.128906 Z M 203.78125 89.128906 " clip-rule="nonzero"/></clipPath><clipPath id="e95ee64c03"><path d="M 175.8125 122.007812 L 199.226562 122.007812 L 199.226562 134.519531 L 175.8125 134.519531 Z M 175.8125 122.007812 " clip-rule="nonzero"/></clipPath><clipPath id="8d735322ee"><path d="M 183.609375 122.578125 C 184.804688 122.234375 186.167969 122.007812 187.507812 122.007812 C 188.84375 122.007812 190.128906 122.203125 191.316406 122.542969 C 191.339844 122.554688 191.367188 122.554688 191.390625 122.566406 C 195.84375 123.9375 199.125 127.554688 199.1875 131.523438 L 199.1875 134.519531 L 175.8125 134.519531 L 175.8125 131.527344 C 175.875 127.53125 179.105469 123.914062 183.609375 122.578125 Z M 183.609375 122.578125 " clip-rule="nonzero"/></clipPath><clipPath id="53e71fda95"><path d="M 173.277344 89.128906 L 201.472656 89.128906 L 201.472656 127.902344 L 173.277344 127.902344 Z M 173.277344 89.128906 " clip-rule="nonzero"/></clipPath><clipPath id="825e59012f"><path d="M 183 240 L 217 240 L 217 270 L 183 270 Z M 183 240 " clip-rule="nonzero"/></clipPath><clipPath id="d6ad55ec8c"><path d="M 141.117188 237.472656 L 197.425781 193.898438 L 233.667969 240.730469 L 177.359375 284.304688 Z M 141.117188 237.472656 " clip-rule="nonzero"/></clipPath><clipPath id="324b5a5bf5"><path d="M 141.117188 237.472656 L 197.425781 193.898438 L 233.667969 240.730469 L 177.359375 284.304688 Z M 141.117188 237.472656 " clip-rule="nonzero"/></clipPath><clipPath id="39655ec7ba"><path d="M 163 212 L 199 212 L 199 249 L 163 249 Z M 163 212 " clip-rule="nonzero"/></clipPath><clipPath id="c563cea320"><path d="M 141.117188 237.472656 L 197.425781 193.898438 L 233.667969 240.730469 L 177.359375 284.304688 Z M 141.117188 237.472656 " clip-rule="nonzero"/></clipPath><clipPath id="501ef18db3"><path d="M 141.117188 237.472656 L 197.425781 193.898438 L 233.667969 240.730469 L 177.359375 284.304688 Z M 141.117188 237.472656 " clip-rule="nonzero"/></clipPath><clipPath id="f3934dffba"><path d="M 158 208 L 204 208 L 204 253 L 158 253 Z M 158 208 " clip-rule="nonzero"/></clipPath><clipPath id="0e06c3252a"><path d="M 141.117188 237.472656 L 197.425781 193.898438 L 233.667969 240.730469 L 177.359375 284.304688 Z M 141.117188 237.472656 " clip-rule="nonzero"/></clipPath><clipPath id="e784e05d61"><path d="M 141.117188 237.472656 L 197.425781 193.898438 L 233.667969 240.730469 L 177.359375 284.304688 Z M 141.117188 237.472656 " clip-rule="nonzero"/></clipPath><clipPath id="fde93f97bc"><path d="M 151.871094 229.152344 L 187.105469 201.886719 L 212.265625 234.398438 L 177.03125 261.664062 Z M 151.871094 229.152344 " clip-rule="nonzero"/></clipPath><clipPath id="4a7d94c80f"><path d="M 151.882812 229.164062 L 187.117188 201.898438 L 212.265625 234.398438 L 177.03125 261.664062 Z M 151.882812 229.164062 " clip-rule="nonzero"/></clipPath><clipPath id="0940cad1e6"><path d="M 172 222 L 189 222 L 189 239 L 172 239 Z M 172 222 " clip-rule="nonzero"/></clipPath><clipPath id="deae4a413c"><path d="M 141.117188 237.472656 L 197.425781 193.898438 L 233.667969 240.730469 L 177.359375 284.304688 Z M 141.117188 237.472656 " clip-rule="nonzero"/></clipPath><clipPath id="a83c4bae40"><path d="M 141.117188 237.472656 L 197.425781 193.898438 L 233.667969 240.730469 L 177.359375 284.304688 Z M 141.117188 237.472656 " clip-rule="nonzero"/></clipPath></defs><g clip-path="url(#d953ff6aef)"><g clip-path="url(#c9246ab008)"><g clip-path="url(#417456c58c)"><path fill="#fdd000" d="M 0 186.511719 L 187.742188 -1.230469 L 374.753906 185.78125 L 187.011719 373.523438 Z M 0 186.511719 " fill-opacity="1" fill-rule="nonzero"/></g></g></g><g clip-path="url(#d9392f0579)"><g clip-path="url(#479084b69a)"><g clip-path="url(#5676b07246)"><g clip-path="url(#617239a8f4)"><path stroke-linecap="butt" transform="matrix(0.53033, -0.53033, 0.53033, 0.53033, 0.00104231, 186.511116)" fill="none" stroke-linejoin="miter" d="M 19.999998 0.00326866 L 334.467373 -0.000414184 C 339.770675 -0.000414184 344.860371 2.106175 348.613194 5.858998 C 352.362333 9.608137 354.468922 14.697834 354.468922 20.001135 L 354.468922 332.623403 C 354.468922 337.926705 352.362333 343.016401 348.613194 346.765541 C 344.860371 350.518363 339.770675 352.624952 334.467373 352.624952 L 19.999998 352.62127 C 8.955136 352.624952 0.00213164 343.671948 0.00213164 332.623403 L 0.00213164 20.001135 C 0.00213164 8.95259 8.955136 -0.000414184 19.999998 0.00326866 Z M 19.999998 0.00326866 " stroke="#231815" stroke-width="60" stroke-opacity="1" stroke-miterlimit="4"/></g></g></g></g><g clip-path="url(#c83e0d85b3)"><g clip-path="url(#b641e43069)"><path fill="#231815" d="M 131.019531 152.035156 L 243.980469 152.035156 L 243.980469 289.707031 L 131.019531 289.707031 Z M 131.019531 152.035156 " fill-opacity="1" fill-rule="nonzero"/></g></g><g clip-path="url(#d3fdc3b137)"><path fill="#231815" d="M 296.46875 158.574219 C 296.46875 174.175781 247.675781 186.828125 187.488281 186.828125 C 127.300781 186.828125 78.507812 174.179688 78.507812 158.574219 C 78.507812 142.96875 127.300781 130.320312 187.488281 130.320312 C 247.675781 130.320312 296.46875 142.972656 296.46875 158.574219 Z M 296.46875 158.574219 " fill-opacity="1" fill-rule="nonzero"/></g><g clip-path="url(#9147db1013)"><path fill="#231815" d="M 136.433594 133.785156 C 136.433594 105.289062 159.539062 82.1875 188.035156 82.1875 C 216.53125 82.1875 239.632812 105.289062 239.632812 133.785156 Z M 136.433594 133.785156 " fill-opacity="1" fill-rule="nonzero"/></g><path fill="#fdd000" d="M 142.066406 158.574219 C 142.066406 164.617188 137.164062 169.519531 131.121094 169.519531 C 125.074219 169.519531 120.175781 164.617188 120.175781 158.574219 C 120.175781 152.53125 125.074219 147.628906 131.121094 147.628906 C 137.164062 147.628906 142.066406 152.53125 142.066406 158.574219 Z M 188.035156 147.632812 C 181.988281 147.632812 177.085938 152.535156 177.085938 158.578125 C 177.085938 164.625 181.988281 169.523438 188.035156 169.523438 C 194.078125 169.523438 198.980469 164.625 198.980469 158.578125 C 198.980469 152.53125 194.078125 147.632812 188.035156 147.632812 Z M 244.949219 147.632812 C 238.902344 147.632812 234 152.535156 234 158.578125 C 234 164.625 238.902344 169.523438 244.949219 169.523438 C 250.992188 169.523438 255.894531 164.625 255.894531 158.578125 C 255.894531 152.53125 250.992188 147.632812 244.949219 147.632812 Z M 210.1875 120.664062 C 204.449219 120.664062 199.800781 116.011719 199.800781 110.273438 C 199.800781 116.011719 195.148438 120.664062 189.410156 120.664062 C 195.148438 120.664062 199.800781 125.3125 199.800781 131.050781 C 199.800781 125.3125 204.449219 120.664062 210.1875 120.664062 Z M 225.285156 104.632812 C 218.003906 104.632812 212.09375 98.726562 212.09375 91.441406 C 212.09375 98.726562 206.1875 104.632812 198.902344 104.632812 C 206.1875 104.632812 212.09375 110.539062 212.09375 117.824219 C 212.09375 110.535156 218.003906 104.632812 225.285156 104.632812 Z M 225.285156 104.632812 " fill-opacity="1" fill-rule="nonzero"/><g clip-path="url(#5e00001311)"><g clip-path="url(#72d9e40e26)"><path fill="#231815" d="M 177.34375 89.128906 L 230.214844 89.128906 L 230.214844 142 L 177.34375 142 Z M 177.34375 89.128906 " fill-opacity="1" fill-rule="nonzero"/></g></g><g clip-path="url(#e95ee64c03)"><g clip-path="url(#8d735322ee)"><path fill="#fdd000" d="M 175.8125 122.007812 L 199.175781 122.007812 L 199.175781 134.519531 L 175.8125 134.519531 Z M 175.8125 122.007812 " fill-opacity="1" fill-rule="nonzero"/></g></g><g clip-path="url(#53e71fda95)"><path fill="#fdd000" d="M 187.640625 89.128906 C 184.476562 89.128906 180.066406 90.207031 177.230469 93.738281 C 174.503906 97.128906 173.292969 102.863281 173.292969 107.988281 C 173.292969 112.566406 175.941406 116.691406 178.261719 120.105469 C 181.238281 124.492188 184.351562 127.574219 187.839844 127.574219 C 191.265625 127.574219 194.714844 123.707031 197.441406 119.46875 C 199.648438 116.039062 201.695312 112.066406 201.695312 107.386719 C 201.695312 102.574219 201.40625 98.300781 199.050781 94.957031 C 197.769531 93.140625 196.265625 91.675781 194.339844 90.714844 C 192.113281 89.597656 189.4375 89.128906 187.640625 89.128906 Z M 175.378906 109.164062 C 185.554688 110.976562 185.792969 118.847656 186.101562 118.941406 C 185.941406 118.945312 176.648438 119.171875 175.378906 109.164062 Z M 199.78125 109.210938 C 196.988281 119.132812 189.167969 118.632812 189 118.925781 C 189 118.929688 189 118.945312 189 118.945312 C 188.996094 118.9375 188.996094 118.933594 189 118.925781 C 189.015625 118.738281 189.710938 109.496094 199.78125 109.210938 Z M 199.78125 109.210938 " fill-opacity="1" fill-rule="nonzero"/></g><g clip-path="url(#825e59012f)"><g clip-path="url(#d6ad55ec8c)"><g clip-path="url(#324b5a5bf5)"><path fill="#fdd000" d="M 187.425781 253.40625 L 201.582031 242.449219 C 201.8125 242.269531 202.054688 242.105469 202.300781 241.949219 C 202.550781 241.792969 202.804688 241.648438 203.066406 241.519531 C 203.332031 241.386719 203.597656 241.269531 203.871094 241.164062 C 204.144531 241.0625 204.425781 240.96875 204.707031 240.894531 C 204.988281 240.816406 205.277344 240.753906 205.566406 240.703125 C 205.855469 240.65625 206.144531 240.621094 206.4375 240.601562 C 206.730469 240.578125 207.023438 240.574219 207.316406 240.582031 C 207.609375 240.589844 207.902344 240.613281 208.191406 240.652344 C 208.480469 240.6875 208.769531 240.738281 209.054688 240.804688 C 209.339844 240.871094 209.625 240.949219 209.902344 241.042969 C 210.179688 241.136719 210.453125 241.242188 210.71875 241.363281 C 210.988281 241.480469 211.246094 241.613281 211.503906 241.757812 C 211.757812 241.90625 212.003906 242.0625 212.242188 242.234375 C 212.480469 242.402344 212.710938 242.582031 212.933594 242.777344 C 213.152344 242.96875 213.367188 243.171875 213.566406 243.382812 C 213.769531 243.597656 213.957031 243.820312 214.136719 244.050781 C 214.316406 244.28125 214.484375 244.523438 214.640625 244.773438 C 214.796875 245.019531 214.9375 245.273438 215.070312 245.539062 C 215.199219 245.800781 215.316406 246.066406 215.421875 246.34375 C 215.527344 246.617188 215.617188 246.894531 215.695312 247.175781 C 215.769531 247.460938 215.835938 247.746094 215.882812 248.035156 C 215.933594 248.324219 215.96875 248.613281 215.988281 248.90625 C 216.007812 249.199219 216.015625 249.492188 216.003906 249.785156 C 215.996094 250.078125 215.976562 250.371094 215.9375 250.660156 C 215.902344 250.953125 215.847656 251.238281 215.785156 251.523438 C 215.71875 251.8125 215.640625 252.09375 215.546875 252.371094 C 215.453125 252.648438 215.347656 252.921875 215.226562 253.1875 C 215.105469 253.457031 214.972656 253.71875 214.828125 253.972656 C 214.683594 254.226562 214.523438 254.472656 214.355469 254.710938 C 214.1875 254.949219 214.003906 255.179688 213.8125 255.402344 C 213.621094 255.625 213.417969 255.835938 213.203125 256.035156 C 212.992188 256.238281 212.769531 256.425781 212.535156 256.605469 L 198.378906 267.5625 C 198.148438 267.742188 197.910156 267.910156 197.660156 268.0625 C 197.414062 268.21875 197.15625 268.363281 196.894531 268.492188 C 196.632812 268.625 196.363281 268.742188 196.089844 268.847656 C 195.816406 268.949219 195.539062 269.042969 195.253906 269.117188 C 194.972656 269.195312 194.6875 269.257812 194.398438 269.308594 C 194.109375 269.355469 193.816406 269.390625 193.523438 269.410156 C 193.234375 269.433594 192.941406 269.4375 192.648438 269.429688 C 192.355469 269.421875 192.0625 269.398438 191.769531 269.363281 C 191.480469 269.324219 191.191406 269.273438 190.90625 269.207031 C 190.621094 269.140625 190.339844 269.0625 190.0625 268.96875 C 189.78125 268.878906 189.511719 268.769531 189.242188 268.652344 C 188.976562 268.53125 188.714844 268.398438 188.460938 268.253906 C 188.207031 268.105469 187.960938 267.949219 187.71875 267.78125 C 187.480469 267.609375 187.25 267.429688 187.03125 267.238281 C 186.808594 267.042969 186.597656 266.839844 186.398438 266.628906 C 186.195312 266.414062 186.003906 266.191406 185.824219 265.960938 C 185.644531 265.730469 185.476562 265.488281 185.324219 265.242188 C 185.167969 264.992188 185.023438 264.738281 184.894531 264.476562 C 184.761719 264.210938 184.644531 263.945312 184.539062 263.671875 C 184.4375 263.394531 184.34375 263.117188 184.269531 262.835938 C 184.191406 262.550781 184.128906 262.265625 184.078125 261.976562 C 184.03125 261.6875 183.996094 261.398438 183.976562 261.105469 C 183.953125 260.8125 183.949219 260.519531 183.957031 260.226562 C 183.964844 259.933594 183.988281 259.640625 184.023438 259.351562 C 184.0625 259.0625 184.113281 258.773438 184.179688 258.488281 C 184.246094 258.203125 184.324219 257.917969 184.417969 257.640625 C 184.511719 257.363281 184.617188 257.089844 184.734375 256.824219 C 184.855469 256.554688 184.988281 256.296875 185.132812 256.039062 C 185.28125 255.785156 185.4375 255.539062 185.605469 255.300781 C 185.777344 255.0625 185.957031 254.832031 186.152344 254.609375 C 186.34375 254.386719 186.546875 254.179688 186.757812 253.976562 C 186.972656 253.777344 187.195312 253.585938 187.425781 253.40625 Z M 187.425781 253.40625 " fill-opacity="1" fill-rule="nonzero"/></g></g></g><g clip-path="url(#39655ec7ba)"><g clip-path="url(#c563cea320)"><g clip-path="url(#501ef18db3)"><path fill="#fdd000" d="M 195.074219 219.417969 C 195.253906 219.652344 195.429688 219.886719 195.597656 220.128906 C 195.765625 220.367188 195.925781 220.613281 196.082031 220.859375 C 196.238281 221.109375 196.386719 221.359375 196.53125 221.617188 C 196.671875 221.871094 196.8125 222.128906 196.941406 222.390625 C 197.070312 222.652344 197.195312 222.917969 197.3125 223.1875 C 197.429688 223.457031 197.542969 223.726562 197.648438 224 C 197.75 224.273438 197.847656 224.550781 197.9375 224.828125 C 198.03125 225.109375 198.113281 225.386719 198.191406 225.671875 C 198.265625 225.953125 198.335938 226.238281 198.402344 226.523438 C 198.464844 226.808594 198.519531 227.097656 198.566406 227.386719 C 198.617188 227.675781 198.660156 227.964844 198.695312 228.257812 C 198.730469 228.546875 198.757812 228.839844 198.777344 229.128906 C 198.796875 229.421875 198.808594 229.714844 198.816406 230.007812 C 198.820312 230.300781 198.820312 230.59375 198.8125 230.886719 C 198.804688 231.179688 198.789062 231.472656 198.765625 231.765625 C 198.742188 232.054688 198.714844 232.347656 198.675781 232.636719 C 198.636719 232.929688 198.59375 233.21875 198.542969 233.507812 C 198.492188 233.792969 198.433594 234.082031 198.367188 234.367188 C 198.304688 234.652344 198.230469 234.9375 198.152344 235.21875 C 198.074219 235.5 197.984375 235.78125 197.894531 236.058594 C 197.800781 236.335938 197.699219 236.613281 197.59375 236.886719 C 197.488281 237.15625 197.375 237.429688 197.253906 237.695312 C 197.132812 237.960938 197.007812 238.226562 196.875 238.488281 C 196.742188 238.75 196.601562 239.007812 196.457031 239.261719 C 196.3125 239.515625 196.160156 239.765625 196.003906 240.011719 C 195.84375 240.257812 195.683594 240.5 195.511719 240.742188 C 195.34375 240.980469 195.167969 241.214844 194.984375 241.445312 C 194.804688 241.675781 194.617188 241.898438 194.425781 242.121094 C 194.234375 242.34375 194.035156 242.558594 193.832031 242.769531 C 193.628906 242.980469 193.421875 243.1875 193.210938 243.390625 C 192.996094 243.589844 192.777344 243.785156 192.554688 243.976562 C 192.332031 244.167969 192.105469 244.351562 191.875 244.53125 C 191.644531 244.710938 191.40625 244.882812 191.167969 245.050781 C 190.925781 245.21875 190.683594 245.378906 190.433594 245.535156 C 190.1875 245.691406 189.933594 245.839844 189.679688 245.984375 C 189.421875 246.128906 189.164062 246.265625 188.902344 246.394531 C 188.640625 246.527344 188.375 246.652344 188.105469 246.769531 C 187.839844 246.886719 187.566406 246.996094 187.292969 247.101562 C 187.019531 247.207031 186.742188 247.300781 186.464844 247.394531 C 186.1875 247.484375 185.90625 247.570312 185.625 247.644531 C 185.339844 247.722656 185.054688 247.792969 184.769531 247.855469 C 184.484375 247.917969 184.195312 247.972656 183.90625 248.023438 C 183.621094 248.074219 183.328125 248.113281 183.039062 248.148438 C 182.746094 248.183594 182.457031 248.210938 182.164062 248.230469 C 181.871094 248.25 181.578125 248.265625 181.285156 248.269531 C 180.992188 248.277344 180.699219 248.273438 180.40625 248.265625 C 180.113281 248.257812 179.824219 248.242188 179.53125 248.21875 C 179.238281 248.199219 178.945312 248.167969 178.65625 248.128906 C 178.367188 248.09375 178.074219 248.050781 177.789062 248 C 177.5 247.945312 177.210938 247.886719 176.925781 247.824219 C 176.640625 247.757812 176.359375 247.683594 176.074219 247.605469 C 175.792969 247.527344 175.515625 247.441406 175.234375 247.347656 C 174.957031 247.253906 174.683594 247.15625 174.410156 247.050781 C 174.136719 246.941406 173.867188 246.828125 173.597656 246.707031 C 173.332031 246.589844 173.066406 246.464844 172.808594 246.332031 C 172.546875 246.199219 172.289062 246.058594 172.035156 245.914062 C 171.78125 245.765625 171.527344 245.617188 171.28125 245.457031 C 171.035156 245.300781 170.792969 245.136719 170.554688 244.96875 C 170.316406 244.796875 170.078125 244.621094 169.851562 244.441406 C 169.621094 244.257812 169.394531 244.074219 169.171875 243.882812 C 168.953125 243.6875 168.734375 243.492188 168.523438 243.289062 C 168.3125 243.085938 168.105469 242.878906 167.90625 242.664062 C 167.703125 242.453125 167.507812 242.234375 167.320312 242.011719 C 167.128906 241.789062 166.941406 241.5625 166.765625 241.328125 C 166.585938 241.097656 166.410156 240.863281 166.242188 240.621094 C 166.074219 240.382812 165.914062 240.136719 165.757812 239.890625 C 165.601562 239.640625 165.453125 239.390625 165.308594 239.132812 C 165.167969 238.878906 165.03125 238.621094 164.898438 238.355469 C 164.769531 238.09375 164.644531 237.828125 164.527344 237.5625 C 164.410156 237.292969 164.296875 237.023438 164.195312 236.75 C 164.089844 236.472656 163.992188 236.199219 163.902344 235.921875 C 163.808594 235.640625 163.726562 235.359375 163.648438 235.078125 C 163.570312 234.796875 163.5 234.511719 163.4375 234.226562 C 163.375 233.9375 163.320312 233.652344 163.269531 233.363281 C 163.222656 233.074219 163.179688 232.785156 163.144531 232.492188 C 163.109375 232.203125 163.082031 231.910156 163.0625 231.617188 C 163.042969 231.324219 163.03125 231.035156 163.023438 230.742188 C 163.019531 230.449219 163.019531 230.15625 163.027344 229.863281 C 163.035156 229.570312 163.050781 229.277344 163.074219 228.984375 C 163.097656 228.691406 163.128906 228.402344 163.164062 228.109375 C 163.199219 227.820312 163.246094 227.53125 163.296875 227.242188 C 163.347656 226.953125 163.40625 226.667969 163.472656 226.382812 C 163.535156 226.09375 163.609375 225.8125 163.6875 225.53125 C 163.765625 225.25 163.855469 224.96875 163.945312 224.691406 C 164.039062 224.414062 164.140625 224.136719 164.246094 223.863281 C 164.351562 223.589844 164.464844 223.320312 164.585938 223.054688 C 164.707031 222.785156 164.832031 222.523438 164.964844 222.261719 C 165.097656 222 165.238281 221.742188 165.382812 221.488281 C 165.527344 221.234375 165.679688 220.984375 165.835938 220.738281 C 165.996094 220.488281 166.15625 220.246094 166.328125 220.007812 C 166.496094 219.769531 166.671875 219.535156 166.855469 219.304688 C 167.035156 219.074219 167.222656 218.847656 167.414062 218.628906 C 167.605469 218.40625 167.804688 218.191406 168.007812 217.980469 C 168.210938 217.769531 168.417969 217.5625 168.628906 217.359375 C 168.84375 217.160156 169.0625 216.964844 169.285156 216.773438 C 169.507812 216.582031 169.734375 216.398438 169.964844 216.21875 C 170.195312 216.039062 170.433594 215.867188 170.671875 215.699219 C 170.914062 215.53125 171.15625 215.367188 171.40625 215.214844 C 171.652344 215.058594 171.90625 214.90625 172.160156 214.765625 C 172.414062 214.621094 172.675781 214.484375 172.9375 214.355469 C 173.199219 214.222656 173.464844 214.097656 173.734375 213.980469 C 174 213.863281 174.273438 213.753906 174.546875 213.648438 C 174.820312 213.542969 175.097656 213.445312 175.375 213.355469 C 175.652344 213.265625 175.933594 213.179688 176.214844 213.105469 C 176.5 213.027344 176.785156 212.957031 177.070312 212.894531 C 177.355469 212.832031 177.644531 212.773438 177.933594 212.726562 C 178.222656 212.675781 178.511719 212.636719 178.800781 212.601562 C 179.09375 212.566406 179.382812 212.539062 179.675781 212.519531 C 179.96875 212.496094 180.261719 212.484375 180.554688 212.476562 C 180.847656 212.472656 181.140625 212.472656 181.433594 212.480469 C 181.726562 212.492188 182.015625 212.507812 182.308594 212.527344 C 182.601562 212.550781 182.894531 212.582031 183.183594 212.617188 C 183.472656 212.65625 183.761719 212.699219 184.050781 212.75 C 184.339844 212.800781 184.628906 212.859375 184.914062 212.925781 C 185.199219 212.992188 185.480469 213.0625 185.765625 213.140625 C 186.046875 213.222656 186.328125 213.308594 186.605469 213.402344 C 186.882812 213.492188 187.15625 213.59375 187.429688 213.699219 C 187.703125 213.808594 187.972656 213.921875 188.238281 214.039062 C 188.507812 214.160156 188.773438 214.285156 189.03125 214.417969 C 189.292969 214.550781 189.550781 214.691406 189.804688 214.835938 C 190.0625 214.980469 190.3125 215.132812 190.558594 215.292969 C 190.804688 215.449219 191.046875 215.613281 191.285156 215.78125 C 191.527344 215.953125 191.757812 216.128906 191.988281 216.308594 C 192.21875 216.488281 192.445312 216.675781 192.667969 216.867188 C 192.886719 217.0625 193.105469 217.257812 193.316406 217.460938 C 193.527344 217.664062 193.734375 217.871094 193.933594 218.085938 C 194.136719 218.296875 194.332031 218.515625 194.519531 218.738281 C 194.710938 218.960938 194.898438 219.1875 195.074219 219.417969 Z M 195.074219 219.417969 " fill-opacity="1" fill-rule="nonzero"/></g></g></g><g clip-path="url(#f3934dffba)"><g clip-path="url(#0e06c3252a)"><g clip-path="url(#e784e05d61)"><g clip-path="url(#fde93f97bc)"><g clip-path="url(#4a7d94c80f)"><path stroke-linecap="butt" transform="matrix(0.0552977, -0.0427928, 0.0427928, 0.0552977, 137.490084, 232.748817)" fill="none" stroke-linejoin="miter" d="M 772.970066 353.283531 C 772.995173 357.541381 772.863536 361.819213 772.687718 366.062855 C 772.477709 370.350679 772.145146 374.614303 771.734212 378.887919 C 771.313286 383.083162 770.823979 387.366769 770.167937 391.591985 C 769.546085 395.77302 768.811671 400.008228 767.988893 404.175055 C 767.131925 408.386064 766.230775 412.562882 765.16289 416.68131 C 764.139187 420.833929 762.99293 424.962348 761.758309 429.022387 C 760.53368 433.160797 759.176506 437.196636 757.77515 441.198285 C 756.295422 445.209925 754.771513 449.187374 753.12505 453.140624 C 751.478586 457.093874 749.787941 461.012933 747.930561 464.873603 C 746.117363 468.768463 744.171619 472.560751 742.181694 476.31885 C 740.191769 480.076948 738.07929 483.810846 735.878448 487.476364 C 733.677606 491.141882 731.388401 494.739019 729.010832 498.267775 C 726.677445 501.830721 724.177323 505.335278 721.667209 508.761462 C 719.078724 512.197638 716.480247 515.555442 713.793407 518.844864 C 711.028195 522.144278 708.252992 525.365319 705.355235 528.562162 C 702.53585 531.749013 699.583921 534.833292 696.543628 537.849191 C 693.503335 540.86509 690.453051 543.802616 687.270222 546.637571 C 684.097384 549.550899 680.870373 552.351663 677.58919 555.039865 C 674.273816 557.772249 670.904269 560.39207 667.48055 562.899328 C 664.02264 565.450769 660.554739 567.923837 656.998475 570.328524 C 653.476401 572.689029 649.821782 574.946963 646.201354 577.160715 C 642.536745 579.340277 638.783771 581.451458 635.020807 583.484267 C 631.292034 585.472894 627.474897 587.39314 623.603587 589.200824 C 619.732277 591.008507 615.816786 592.782001 611.881312 594.398749 C 607.945839 596.015498 603.966183 597.598057 599.922364 598.989681 C 595.888536 600.459676 591.878908 601.807118 587.736734 603.051989 C 583.672933 604.286869 579.554958 605.409186 575.426993 606.45313 C 571.299028 607.497075 567.11689 608.428457 562.92476 609.281467 C 558.732631 610.134478 554.52052 610.830743 550.298417 611.448637 C 546.076314 612.066531 541.84422 612.606053 537.557954 613.033012 C 533.350059 613.44998 529.087992 613.754385 524.815934 613.980418 C 520.543875 614.206452 516.251835 614.275741 511.993984 614.300848 C 507.726143 614.247583 503.458302 614.194319 499.170478 613.98431 C 494.916845 613.730119 490.697402 613.431747 486.423787 613.020812 C 482.150171 612.609878 477.900755 612.076389 473.71972 611.454537 C 469.460313 610.842677 465.303477 610.098271 461.058278 609.285485 C 456.891451 608.462707 452.704642 607.483185 448.552023 606.459482 C 444.433595 605.391597 440.349357 604.27953 436.210947 603.054901 C 432.150908 601.820281 428.115069 600.463106 424.069239 599.02756 C 420.023409 597.592014 416.08015 596.023923 412.1269 594.37746 C 408.13946 592.775178 404.254591 591.040351 400.438103 589.217162 C 396.543243 587.403963 392.750954 585.45822 388.948674 583.434104 C 385.190576 581.444179 381.500859 579.365891 377.835341 577.165049 C 374.169823 574.964207 370.572686 572.675001 366.999749 570.263242 C 363.436802 567.929855 359.976427 565.463923 356.506061 562.919619 C 353.114067 560.365324 349.712082 557.732657 346.42266 555.045817 C 343.133237 552.358977 339.868014 549.549584 336.715353 546.686017 C 333.562693 543.822451 330.478413 540.870521 327.462514 537.830228 C 324.412425 534.834117 321.464908 531.705461 318.595762 528.566813 C 315.760807 525.383984 312.960042 522.156974 310.227659 518.8416 C 307.539457 515.560416 304.919635 512.19087 302.368195 508.73296 C 299.826746 505.353422 297.387869 501.84134 294.983182 498.285075 C 292.578495 494.728811 290.330552 491.152565 288.106808 487.453764 C 285.927247 483.789155 283.826057 480.114554 281.827439 476.307408 C 279.79463 472.544444 277.874384 468.727307 276.0667 464.855997 C 274.224826 461.028869 272.529705 457.103386 270.868774 453.133722 C 269.252025 449.198249 267.713649 445.252784 266.243653 441.218956 C 264.817839 437.219318 263.460405 433.131318 262.225526 429.067516 C 261.024837 424.959533 259.824148 420.85155 258.814393 416.679403 C 257.770449 412.551438 256.839066 408.3693 256.030238 404.211361 C 255.177228 400.019232 254.480962 395.80712 253.818887 391.550827 C 253.200993 387.328724 252.661471 383.09663 252.278694 378.844554 C 251.817544 374.602469 251.513139 370.340402 251.331287 366.102534 C 251.105254 361.830476 251.001774 357.582617 251.010857 353.280585 C 250.98575 349.022735 251.117387 344.744902 251.327396 340.457079 C 251.503214 336.213437 251.835777 331.949812 252.246712 327.676197 C 252.701828 323.436772 253.201126 319.231537 253.812987 314.97213 C 254.469029 310.746913 255.169253 306.555887 256.026221 302.344879 C 256.848998 298.178052 257.750148 294.001234 258.818033 289.882805 C 259.841736 285.730187 260.987994 281.601767 262.256804 277.497547 C 263.491425 273.437509 264.804417 269.367479 266.284145 265.35584 C 267.685501 261.354191 269.243601 257.33256 270.890064 253.37931 C 272.502337 249.470242 274.271354 245.541191 276.050362 241.690513 C 277.907742 237.829843 279.809304 234.003364 281.799229 230.245266 C 283.823345 226.442986 285.945815 222.78746 288.146657 219.121942 C 290.347499 215.456424 292.592523 211.825096 295.004282 208.252159 C 297.38185 204.723403 299.8036 201.228838 302.357895 197.836844 C 304.902199 194.366477 307.500676 191.008674 310.265888 187.70926 C 312.952728 184.419838 315.762122 181.154615 318.625688 178.001954 C 321.489255 174.849293 324.397003 171.730823 327.437296 168.714925 C 330.477589 165.699026 333.527873 162.761499 336.744892 159.882363 C 339.88354 157.013217 343.11055 154.212452 346.391733 151.52425 C 349.751289 148.826057 353.076654 146.172046 356.534564 143.620605 C 359.958283 141.113347 363.426184 138.640279 367.02663 136.269782 C 370.548704 133.909277 374.159141 131.617152 377.823751 129.437591 C 381.522551 127.213847 385.197152 125.112657 388.960116 123.079849 C 392.767262 121.08123 396.584399 119.160984 400.411527 117.31911 C 404.282837 115.511426 408.164137 113.782115 412.133801 112.121184 C 416.069275 110.504435 420.058921 109.000249 424.09275 107.530253 C 428.092387 106.104439 432.180388 104.747006 436.244189 103.512126 C 440.307991 102.277247 444.425965 101.15493 448.588121 100.066804 C 452.760268 99.057049 456.864034 98.135658 461.056163 97.282648 C 465.292474 96.463828 469.460404 95.733372 473.682506 95.115478 C 477.9388 94.453403 482.136703 93.958063 486.42297 93.531104 C 490.675046 93.148326 494.927122 92.765549 499.209171 92.617888 C 503.48123 92.391854 507.729089 92.288375 511.986939 92.263267 C 516.288971 92.272351 520.522622 92.369797 524.810445 92.579806 C 529.098269 92.789815 533.361893 93.122377 537.557137 93.543303 C 541.830752 93.954238 546.080168 94.487726 550.261203 95.109578 C 554.52061 95.721439 558.755818 96.455853 562.922645 97.278631 C 567.133654 98.135599 571.276281 99.08093 575.4289 100.104634 C 579.581519 101.128337 583.709938 102.274594 587.769977 103.509215 C 591.830015 104.743835 595.944226 106.091018 599.911684 107.536555 C 603.957514 108.972102 607.934964 110.496011 611.888214 112.142474 C 615.841464 113.788938 619.726332 115.523764 623.621193 117.336963 C 627.437681 119.160152 631.26416 121.061714 635.032249 123.130011 C 638.790347 125.119936 642.524246 127.232415 646.189764 129.433257 C 649.855282 131.634099 653.452419 133.923305 657.015365 136.256692 C 660.544121 138.63426 664.004496 141.100192 667.474862 143.644496 C 670.945228 146.1888 674.268841 148.831458 677.558264 151.518298 C 680.891868 154.239329 684.112909 157.014532 687.26557 159.878098 C 690.41823 162.741665 693.546692 165.727785 696.596781 168.723896 C 699.568498 171.729999 702.516016 174.858655 705.385161 177.997302 C 708.254307 181.13595 711.020881 184.407142 713.753265 187.722516 C 716.441467 191.003699 719.061288 194.373246 721.646918 197.786974 C 724.198359 201.244884 726.637236 204.756966 728.997741 208.27904 C 731.402429 211.835304 733.694553 215.445741 735.874115 219.110351 C 738.053677 222.774961 740.154866 226.449562 742.153485 230.256708 C 744.186294 234.019672 746.10654 237.836809 747.948414 241.663937 C 749.756097 245.535247 751.529591 249.450738 753.146339 253.386212 C 754.763088 257.321685 756.311456 261.345522 757.73727 265.34516 C 759.207266 269.378988 760.520518 273.432798 761.755397 277.496599 C 763.034459 281.594591 764.156775 285.712565 765.16653 289.884712 C 766.210475 294.012678 767.141857 298.194816 767.994867 302.386945 C 768.803695 306.544884 769.544143 310.791186 770.196227 314.969107 C 770.814121 319.19121 771.319452 323.467485 771.73642 327.67538 C 772.163379 331.961646 772.467785 336.223713 772.693818 340.495772 C 772.875669 344.73364 773.023331 349.015689 772.970066 353.283531 Z M 772.970066 353.283531 " stroke="#000000" stroke-width="10" stroke-opacity="0.2" stroke-miterlimit="4"/></g></g></g></g></g><g clip-path="url(#0940cad1e6)"><g clip-path="url(#deae4a413c)"><g clip-path="url(#a83c4bae40)"><path fill="#231815" d="M 187.261719 225.464844 C 187.421875 225.675781 187.574219 225.890625 187.710938 226.113281 C 187.851562 226.335938 187.980469 226.5625 188.097656 226.796875 C 188.214844 227.035156 188.320312 227.273438 188.414062 227.519531 C 188.507812 227.765625 188.589844 228.015625 188.65625 228.265625 C 188.726562 228.519531 188.78125 228.777344 188.824219 229.035156 C 188.871094 229.292969 188.902344 229.554688 188.917969 229.816406 C 188.9375 230.078125 188.941406 230.339844 188.933594 230.605469 C 188.929688 230.867188 188.90625 231.128906 188.875 231.386719 C 188.839844 231.648438 188.796875 231.90625 188.738281 232.164062 C 188.679688 232.417969 188.609375 232.671875 188.523438 232.921875 C 188.441406 233.167969 188.34375 233.414062 188.238281 233.652344 C 188.128906 233.894531 188.011719 234.128906 187.878906 234.355469 C 187.75 234.582031 187.609375 234.804688 187.457031 235.019531 C 187.304688 235.234375 187.144531 235.4375 186.96875 235.636719 C 186.796875 235.835938 186.617188 236.023438 186.425781 236.203125 C 186.234375 236.386719 186.035156 236.554688 185.828125 236.714844 C 185.621094 236.878906 185.40625 237.027344 185.183594 237.167969 C 184.960938 237.304688 184.730469 237.433594 184.496094 237.550781 C 184.261719 237.667969 184.019531 237.773438 183.773438 237.867188 C 183.53125 237.960938 183.28125 238.042969 183.027344 238.113281 C 182.773438 238.179688 182.519531 238.238281 182.257812 238.28125 C 182 238.324219 181.738281 238.355469 181.476562 238.375 C 181.214844 238.390625 180.953125 238.398438 180.691406 238.390625 C 180.425781 238.382812 180.167969 238.363281 179.90625 238.328125 C 179.644531 238.296875 179.386719 238.25 179.132812 238.191406 C 178.875 238.132812 178.621094 238.0625 178.375 237.980469 C 178.125 237.894531 177.878906 237.800781 177.640625 237.691406 C 177.402344 237.585938 177.167969 237.464844 176.9375 237.335938 C 176.710938 237.207031 176.488281 237.0625 176.277344 236.910156 C 176.0625 236.757812 175.855469 236.597656 175.65625 236.425781 C 175.460938 236.253906 175.269531 236.070312 175.089844 235.878906 C 174.910156 235.691406 174.738281 235.488281 174.578125 235.28125 C 174.417969 235.074219 174.265625 234.859375 174.128906 234.636719 C 173.988281 234.414062 173.859375 234.1875 173.742188 233.949219 C 173.625 233.714844 173.519531 233.476562 173.425781 233.230469 C 173.332031 232.984375 173.25 232.734375 173.183594 232.480469 C 173.113281 232.230469 173.058594 231.972656 173.011719 231.714844 C 172.96875 231.453125 172.9375 231.195312 172.921875 230.929688 C 172.902344 230.667969 172.898438 230.40625 172.902344 230.144531 C 172.910156 229.882812 172.929688 229.621094 172.964844 229.359375 C 173 229.101562 173.042969 228.839844 173.101562 228.585938 C 173.160156 228.328125 173.234375 228.078125 173.316406 227.828125 C 173.398438 227.578125 173.496094 227.335938 173.601562 227.09375 C 173.710938 226.855469 173.828125 226.621094 173.957031 226.394531 C 174.089844 226.164062 174.230469 225.945312 174.382812 225.730469 C 174.535156 225.515625 174.695312 225.308594 174.867188 225.113281 C 175.042969 224.914062 175.222656 224.722656 175.414062 224.542969 C 175.605469 224.363281 175.804688 224.195312 176.011719 224.03125 C 176.21875 223.871094 176.433594 223.722656 176.65625 223.582031 C 176.878906 223.441406 177.109375 223.3125 177.34375 223.195312 C 177.578125 223.082031 177.820312 222.972656 178.0625 222.882812 C 178.308594 222.789062 178.558594 222.707031 178.8125 222.636719 C 179.066406 222.570312 179.324219 222.511719 179.582031 222.46875 C 179.839844 222.425781 180.101562 222.394531 180.363281 222.375 C 180.625 222.355469 180.886719 222.351562 181.148438 222.359375 C 181.410156 222.367188 181.671875 222.386719 181.933594 222.417969 C 182.195312 222.453125 182.453125 222.5 182.707031 222.558594 C 182.964844 222.617188 183.21875 222.6875 183.464844 222.769531 C 183.714844 222.855469 183.960938 222.949219 184.199219 223.058594 C 184.4375 223.164062 184.671875 223.285156 184.902344 223.414062 C 185.128906 223.542969 185.351562 223.683594 185.5625 223.835938 C 185.777344 223.988281 185.984375 224.152344 186.183594 224.324219 C 186.378906 224.496094 186.570312 224.679688 186.75 224.867188 C 186.929688 225.058594 187.101562 225.257812 187.261719 225.464844 Z M 187.261719 225.464844 " fill-opacity="1" fill-rule="nonzero"/></g></g></g></svg>