<svg xmlns="http://www.w3.org/2000/svg" xmlns:xlink="http://www.w3.org/1999/xlink" width="262" zoomAndPan="magnify" viewBox="0 0 196.5 309.74999" height="413" preserveAspectRatio="xMidYMid meet" version="1.0"><defs><clipPath id="ab7785bf22"><path d="M 3 215 L 192 215 L 192 308.484375 L 3 308.484375 Z M 3 215 " clip-rule="nonzero"/></clipPath><clipPath id="0aac171605"><path d="M 0 0.269531 L 196 0.269531 L 196 216 L 0 216 Z M 0 0.269531 " clip-rule="nonzero"/></clipPath></defs><g clip-path="url(#ab7785bf22)"><path fill="#00bf63" d="M 50.707031 215.109375 L 144.671875 215.109375 C 146.210938 215.109375 147.746094 215.183594 149.277344 215.335938 C 150.808594 215.488281 152.332031 215.710938 153.839844 216.011719 C 155.347656 216.3125 156.839844 216.6875 158.3125 217.132812 C 159.785156 217.578125 161.230469 218.097656 162.652344 218.6875 C 164.074219 219.277344 165.464844 219.933594 166.820312 220.65625 C 168.179688 221.382812 169.496094 222.171875 170.777344 223.027344 C 172.054688 223.882812 173.289062 224.796875 174.480469 225.773438 C 175.667969 226.75 176.808594 227.785156 177.894531 228.871094 C 178.984375 229.960938 180.015625 231.097656 180.992188 232.289062 C 181.96875 233.476562 182.882812 234.710938 183.738281 235.992188 C 184.59375 237.269531 185.382812 238.589844 186.109375 239.945312 C 186.835938 241.304688 187.492188 242.691406 188.082031 244.113281 C 188.667969 245.535156 189.1875 246.984375 189.632812 248.457031 C 190.082031 249.929688 190.453125 251.417969 190.753906 252.929688 C 191.054688 254.4375 191.28125 255.957031 191.429688 257.488281 C 191.582031 259.019531 191.65625 260.554688 191.65625 262.09375 C 191.65625 263.632812 191.582031 265.167969 191.429688 266.699219 C 191.28125 268.230469 191.054688 269.75 190.753906 271.261719 C 190.453125 272.769531 190.082031 274.261719 189.632812 275.734375 C 189.1875 277.207031 188.667969 278.652344 188.082031 280.074219 C 187.492188 281.496094 186.835938 282.886719 186.109375 284.242188 C 185.382812 285.597656 184.59375 286.917969 183.738281 288.195312 C 182.882812 289.476562 181.96875 290.710938 180.992188 291.898438 C 180.015625 293.089844 178.984375 294.230469 177.894531 295.316406 C 176.808594 296.40625 175.667969 297.4375 174.480469 298.414062 C 173.289062 299.390625 172.054688 300.304688 170.777344 301.160156 C 169.496094 302.015625 168.179688 302.804688 166.820312 303.53125 C 165.464844 304.253906 164.074219 304.914062 162.652344 305.5 C 161.230469 306.089844 159.785156 306.609375 158.3125 307.054688 C 156.839844 307.5 155.347656 307.875 153.839844 308.175781 C 152.332031 308.476562 150.808594 308.699219 149.277344 308.851562 C 147.746094 309.003906 146.210938 309.078125 144.671875 309.078125 L 50.707031 309.078125 C 49.167969 309.078125 47.632812 309.003906 46.101562 308.851562 C 44.570312 308.699219 43.046875 308.476562 41.539062 308.175781 C 40.03125 307.875 38.539062 307.5 37.066406 307.054688 C 35.59375 306.609375 34.148438 306.089844 32.726562 305.5 C 31.304688 304.914062 29.914062 304.253906 28.558594 303.53125 C 27.199219 302.804688 25.882812 302.015625 24.601562 301.160156 C 23.324219 300.304688 22.089844 299.390625 20.898438 298.414062 C 19.710938 297.4375 18.570312 296.40625 17.484375 295.316406 C 16.394531 294.230469 15.363281 293.089844 14.386719 291.898438 C 13.410156 290.710938 12.496094 289.476562 11.640625 288.195312 C 10.785156 286.917969 9.996094 285.597656 9.269531 284.242188 C 8.542969 282.886719 7.886719 281.496094 7.296875 280.074219 C 6.707031 278.652344 6.191406 277.207031 5.746094 275.734375 C 5.296875 274.261719 4.925781 272.769531 4.625 271.261719 C 4.324219 269.75 4.097656 268.230469 3.949219 266.699219 C 3.796875 265.167969 3.722656 263.632812 3.722656 262.09375 C 3.722656 260.554688 3.796875 259.019531 3.949219 257.488281 C 4.097656 255.957031 4.324219 254.4375 4.625 252.929688 C 4.925781 251.417969 5.296875 249.929688 5.746094 248.457031 C 6.191406 246.984375 6.707031 245.535156 7.296875 244.113281 C 7.886719 242.691406 8.542969 241.304688 9.269531 239.945312 C 9.996094 238.589844 10.785156 237.269531 11.640625 235.992188 C 12.496094 234.710938 13.410156 233.476562 14.386719 232.289062 C 15.363281 231.097656 16.394531 229.960938 17.484375 228.871094 C 18.570312 227.785156 19.710938 226.75 20.898438 225.773438 C 22.089844 224.796875 23.324219 223.882812 24.601562 223.027344 C 25.882812 222.171875 27.199219 221.382812 28.558594 220.65625 C 29.914062 219.933594 31.304688 219.277344 32.726562 218.6875 C 34.148438 218.097656 35.59375 217.578125 37.066406 217.132812 C 38.539062 216.6875 40.03125 216.3125 41.539062 216.011719 C 43.046875 215.710938 44.570312 215.488281 46.101562 215.335938 C 47.632812 215.183594 49.167969 215.109375 50.707031 215.109375 Z M 50.707031 215.109375 " fill-opacity="1" fill-rule="nonzero"/></g><path fill="#e0a6be" d="M 191.65625 98.589844 C 191.65625 100.128906 191.621094 101.664062 191.542969 103.199219 C 191.46875 104.738281 191.355469 106.269531 191.203125 107.800781 C 191.054688 109.332031 190.867188 110.855469 190.640625 112.378906 C 190.414062 113.898438 190.152344 115.414062 189.851562 116.921875 C 189.550781 118.429688 189.214844 119.929688 188.839844 121.421875 C 188.46875 122.914062 188.058594 124.394531 187.609375 125.867188 C 187.164062 127.339844 186.683594 128.796875 186.164062 130.246094 C 185.644531 131.695312 185.09375 133.128906 184.503906 134.550781 C 183.914062 135.96875 183.292969 137.375 182.636719 138.765625 C 181.976562 140.15625 181.285156 141.53125 180.5625 142.886719 C 179.835938 144.242188 179.078125 145.578125 178.289062 146.898438 C 177.496094 148.21875 176.675781 149.515625 175.820312 150.796875 C 174.964844 152.074219 174.082031 153.332031 173.164062 154.566406 C 172.25 155.800781 171.304688 157.015625 170.328125 158.203125 C 169.351562 159.390625 168.347656 160.554688 167.316406 161.695312 C 166.28125 162.835938 165.222656 163.949219 164.132812 165.035156 C 163.046875 166.121094 161.933594 167.183594 160.792969 168.214844 C 159.65625 169.25 158.492188 170.253906 157.300781 171.226562 C 156.113281 172.203125 154.902344 173.148438 153.664062 174.066406 C 152.429688 174.980469 151.171875 175.867188 149.894531 176.722656 C 148.617188 177.574219 147.316406 178.398438 146 179.1875 C 144.679688 179.980469 143.339844 180.738281 141.984375 181.460938 C 140.628906 182.1875 139.257812 182.878906 137.867188 183.535156 C 136.476562 184.195312 135.070312 184.816406 133.648438 185.40625 C 132.226562 185.992188 130.792969 186.546875 129.347656 187.066406 C 127.898438 187.582031 126.4375 188.066406 124.964844 188.511719 C 123.496094 188.957031 122.011719 189.367188 120.523438 189.742188 C 119.03125 190.117188 117.53125 190.453125 116.023438 190.753906 C 114.511719 191.050781 113 191.316406 111.476562 191.539062 C 109.957031 191.765625 108.429688 191.953125 106.898438 192.105469 C 105.371094 192.257812 103.835938 192.371094 102.300781 192.445312 C 100.765625 192.519531 99.226562 192.558594 97.6875 192.558594 C 96.152344 192.558594 94.613281 192.519531 93.078125 192.445312 C 91.542969 192.371094 90.007812 192.257812 88.480469 192.105469 C 86.949219 191.953125 85.421875 191.765625 83.902344 191.539062 C 82.378906 191.316406 80.867188 191.050781 79.355469 190.753906 C 77.847656 190.453125 76.347656 190.117188 74.855469 189.742188 C 73.363281 189.367188 71.882812 188.957031 70.410156 188.511719 C 68.941406 188.066406 67.480469 187.582031 66.03125 187.066406 C 64.585938 186.546875 63.148438 185.992188 61.730469 185.40625 C 60.308594 184.816406 58.902344 184.195312 57.511719 183.535156 C 56.121094 182.878906 54.75 182.1875 53.394531 181.460938 C 52.035156 180.738281 50.699219 179.980469 49.378906 179.1875 C 48.0625 178.398438 46.761719 177.574219 45.484375 176.722656 C 44.203125 175.867188 42.949219 174.980469 41.710938 174.066406 C 40.476562 173.148438 39.265625 172.203125 38.078125 171.226562 C 36.886719 170.253906 35.722656 169.25 34.585938 168.214844 C 33.445312 167.183594 32.332031 166.121094 31.242188 165.035156 C 30.15625 163.949219 29.097656 162.835938 28.0625 161.695312 C 27.03125 160.554688 26.027344 159.390625 25.050781 158.203125 C 24.074219 157.015625 23.128906 155.800781 22.214844 154.566406 C 21.296875 153.332031 20.414062 152.074219 19.558594 150.796875 C 18.703125 149.515625 17.882812 148.21875 17.089844 146.898438 C 16.300781 145.578125 15.542969 144.242188 14.816406 142.886719 C 14.09375 141.53125 13.402344 140.15625 12.742188 138.765625 C 12.085938 137.375 11.460938 135.96875 10.875 134.550781 C 10.285156 133.128906 9.734375 131.695312 9.214844 130.246094 C 8.695312 128.796875 8.214844 127.339844 7.769531 125.867188 C 7.320312 124.394531 6.910156 122.914062 6.539062 121.421875 C 6.164062 119.929688 5.828125 118.429688 5.527344 116.921875 C 5.226562 115.414062 4.964844 113.898438 4.738281 112.378906 C 4.511719 110.855469 4.324219 109.332031 4.175781 107.800781 C 4.023438 106.269531 3.910156 104.738281 3.835938 103.199219 C 3.757812 101.664062 3.722656 100.128906 3.722656 98.589844 C 3.722656 97.050781 3.757812 95.515625 3.835938 93.980469 C 3.910156 92.441406 4.023438 90.910156 4.175781 89.378906 C 4.324219 87.847656 4.511719 86.324219 4.738281 84.800781 C 4.964844 83.28125 5.226562 81.765625 5.527344 80.257812 C 5.828125 78.75 6.164062 77.25 6.539062 75.757812 C 6.910156 74.265625 7.320312 72.785156 7.769531 71.3125 C 8.214844 69.839844 8.695312 68.382812 9.214844 66.933594 C 9.734375 65.484375 10.285156 64.050781 10.875 62.628906 C 11.460938 61.210938 12.085938 59.804688 12.742188 58.414062 C 13.402344 57.023438 14.09375 55.648438 14.816406 54.292969 C 15.542969 52.9375 16.300781 51.601562 17.089844 50.28125 C 17.882812 48.960938 18.703125 47.664062 19.558594 46.382812 C 20.414062 45.105469 21.296875 43.847656 22.214844 42.613281 C 23.128906 41.378906 24.074219 40.167969 25.050781 38.976562 C 26.027344 37.789062 27.03125 36.625 28.0625 35.484375 C 29.097656 34.34375 30.15625 33.230469 31.242188 32.144531 C 32.332031 31.058594 33.445312 29.996094 34.585938 28.964844 C 35.722656 27.929688 36.886719 26.925781 38.078125 25.953125 C 39.265625 24.976562 40.476562 24.03125 41.710938 23.113281 C 42.949219 22.199219 44.203125 21.3125 45.484375 20.457031 C 46.761719 19.605469 48.0625 18.78125 49.378906 17.992188 C 50.699219 17.199219 52.035156 16.441406 53.394531 15.71875 C 54.75 14.992188 56.121094 14.300781 57.511719 13.644531 C 58.902344 12.988281 60.308594 12.363281 61.730469 11.773438 C 63.148438 11.1875 64.585938 10.632812 66.03125 10.113281 C 67.480469 9.597656 68.941406 9.113281 70.410156 8.667969 C 71.882812 8.222656 73.363281 7.8125 74.855469 7.4375 C 76.347656 7.0625 77.847656 6.726562 79.355469 6.425781 C 80.867188 6.128906 82.378906 5.863281 83.902344 5.640625 C 85.421875 5.414062 86.949219 5.226562 88.480469 5.074219 C 90.007812 4.921875 91.542969 4.8125 93.078125 4.734375 C 94.613281 4.660156 96.152344 4.621094 97.6875 4.621094 C 99.226562 4.621094 100.765625 4.660156 102.300781 4.734375 C 103.835938 4.8125 105.371094 4.921875 106.898438 5.074219 C 108.429688 5.226562 109.957031 5.414062 111.476562 5.640625 C 113 5.863281 114.511719 6.128906 116.023438 6.425781 C 117.53125 6.726562 119.03125 7.0625 120.523438 7.4375 C 122.011719 7.8125 123.496094 8.222656 124.964844 8.667969 C 126.4375 9.113281 127.898438 9.597656 129.347656 10.113281 C 130.792969 10.632812 132.226562 11.1875 133.648438 11.773438 C 135.070312 12.363281 136.476562 12.988281 137.867188 13.644531 C 139.257812 14.300781 140.628906 14.992188 141.984375 15.71875 C 143.339844 16.441406 144.679688 17.199219 146 17.992188 C 147.316406 18.78125 148.617188 19.605469 149.894531 20.457031 C 151.171875 21.3125 152.429688 22.199219 153.664062 23.113281 C 154.902344 24.03125 156.113281 24.976562 157.300781 25.953125 C 158.492188 26.925781 159.65625 27.929688 160.792969 28.964844 C 161.933594 29.996094 163.046875 31.058594 164.132812 32.144531 C 165.222656 33.230469 166.28125 34.34375 167.316406 35.484375 C 168.347656 36.625 169.351562 37.789062 170.328125 38.976562 C 171.304688 40.167969 172.25 41.378906 173.164062 42.613281 C 174.082031 43.847656 174.964844 45.105469 175.820312 46.382812 C 176.675781 47.664062 177.496094 48.960938 178.289062 50.28125 C 179.078125 51.601562 179.835938 52.9375 180.5625 54.292969 C 181.285156 55.648438 181.976562 57.023438 182.636719 58.414062 C 183.292969 59.804688 183.914062 61.210938 184.503906 62.628906 C 185.09375 64.050781 185.644531 65.484375 186.164062 66.933594 C 186.683594 68.382812 187.164062 69.839844 187.609375 71.3125 C 188.058594 72.785156 188.46875 74.265625 188.839844 75.757812 C 189.214844 77.25 189.550781 78.75 189.851562 80.257812 C 190.152344 81.765625 190.414062 83.28125 190.640625 84.800781 C 190.867188 86.324219 191.054688 87.847656 191.203125 89.378906 C 191.355469 90.910156 191.46875 92.441406 191.542969 93.980469 C 191.621094 95.515625 191.65625 97.050781 191.65625 98.589844 Z M 191.65625 98.589844 " fill-opacity="1" fill-rule="nonzero"/><g clip-path="url(#0aac171605)"><path stroke-linecap="butt" transform="matrix(0.367062, 0, 0, 0.367062, -90.246552, -31.08583)" fill="none" stroke-linejoin="miter" d="M 772.99907 353.279834 C 772.99907 357.547248 772.892651 361.825304 772.690454 366.082075 C 772.477615 370.349489 772.158357 374.616903 771.743322 378.863032 C 771.328287 383.109162 770.806832 387.355292 770.178959 391.580138 C 769.551085 395.804984 768.816792 400.008546 767.986721 404.201466 C 767.156651 408.383744 766.220161 412.555381 765.177252 416.695091 C 764.144985 420.845444 763.006298 424.953228 761.761193 429.039729 C 760.526729 433.136872 759.185846 437.191447 757.738543 441.203454 C 756.301883 445.226104 754.769445 449.216827 753.130588 453.164983 C 751.502373 457.102497 749.767738 461.008085 747.937326 464.871105 C 746.117556 468.734126 744.191367 472.543936 742.180043 476.311179 C 740.168718 480.078422 738.061616 483.792456 735.869378 487.463921 C 733.666499 491.124745 731.389126 494.732359 729.015976 498.286763 C 726.642826 501.830526 724.18454 505.331721 721.641119 508.758422 C 719.097698 512.185123 716.469141 515.558615 713.755449 518.857613 C 711.041757 522.156611 708.253572 525.391757 705.390893 528.55241 C 702.517572 531.723705 699.5804 534.809865 696.558092 537.832173 C 693.535784 540.854481 690.438982 543.802295 687.278329 546.664974 C 684.107034 549.538295 680.88253 552.32648 677.57289 555.040172 C 674.273892 557.743222 670.911042 560.371779 667.473699 562.9152 C 664.046997 565.458621 660.556445 567.916907 657.00204 570.290057 C 653.447636 572.663207 649.840022 574.951222 646.179198 577.14346 C 642.518374 579.346339 638.804341 581.442799 635.037098 583.464766 C 631.269855 585.47609 627.449403 587.391638 623.597024 589.222049 C 619.734004 591.052461 615.828416 592.776454 611.88026 594.415311 C 607.932104 596.043526 603.952023 597.586606 599.929373 599.023266 C 595.906724 600.459927 591.852149 601.80081 587.765648 603.045916 C 583.679147 604.280379 579.560721 605.419066 575.42101 606.461975 C 571.270658 607.494242 567.109663 608.430732 562.916743 609.260802 C 558.723823 610.101515 554.520261 610.825166 550.295415 611.45304 C 546.070569 612.080914 541.835081 612.602368 537.578309 613.028045 C 533.33218 613.443081 529.075408 613.751697 524.807994 613.964535 C 520.540581 614.177374 516.273167 614.283793 511.995111 614.283793 C 507.727698 614.283793 503.460284 614.177374 499.19287 613.964535 C 494.925457 613.751697 490.668685 613.443081 486.422555 613.028045 C 482.165783 612.602368 477.930296 612.080914 473.70545 611.45304 C 469.480604 610.825166 465.2664 610.101515 461.084121 609.260802 C 456.891201 608.430732 452.730207 607.494242 448.579854 606.461975 C 444.440144 605.419066 440.321717 604.280379 436.235216 603.045916 C 432.148716 601.80081 428.094141 600.459927 424.071491 599.023266 C 420.048842 597.586606 416.06876 596.043526 412.120605 594.415311 C 408.172449 592.776454 404.266861 591.052461 400.40384 589.222049 C 396.551462 587.391638 392.731009 585.47609 388.963766 583.464766 C 385.196523 581.442799 381.48249 579.346339 377.821666 577.14346 C 374.150201 574.951222 370.542587 572.663207 366.998824 570.290057 C 363.44442 567.916907 359.953867 565.458621 356.527166 562.9152 C 353.089823 560.371779 349.726973 557.743222 346.427975 555.040172 C 343.118335 552.32648 339.883188 549.538295 336.722535 546.664974 C 333.561882 543.802295 330.465081 540.854481 327.442773 537.832173 C 324.420465 534.809865 321.483293 531.723705 318.609972 528.55241 C 315.747293 525.391757 312.959107 522.156611 310.245415 518.857613 C 307.531723 515.558615 304.903167 512.185123 302.359746 508.758422 C 299.816324 505.331721 297.358039 501.830526 294.984889 498.286763 C 292.611738 494.732359 290.323723 491.124745 288.131486 487.463921 C 285.939249 483.792456 283.832147 480.078422 281.820822 476.311179 C 279.809497 472.543936 277.883308 468.734126 276.063538 464.871105 C 274.233126 461.008085 272.498492 457.102497 270.870277 453.164983 C 269.23142 449.216827 267.698982 445.226104 266.251679 441.203454 C 264.815019 437.191447 263.474136 433.136872 262.239672 429.039729 C 260.994566 424.953228 259.85588 420.845444 258.823613 416.695091 C 257.780704 412.555381 256.844214 408.383744 256.014143 404.201466 C 255.184073 400.008546 254.44978 395.804984 253.821906 391.580138 C 253.194032 387.355292 252.672578 383.109162 252.257542 378.863032 C 251.842507 374.616903 251.523249 370.349489 251.310411 366.082075 C 251.108214 361.825304 251.001795 357.547248 251.001795 353.279834 C 251.001795 349.012421 251.108214 344.745007 251.310411 340.477593 C 251.523249 336.21018 251.842507 331.953408 252.257542 327.696636 C 252.672578 323.450506 253.194032 319.204377 253.821906 314.979531 C 254.44978 310.754685 255.184073 306.551123 256.014143 302.358203 C 256.844214 298.175924 257.780704 294.004288 258.823613 289.864578 C 259.85588 285.714225 260.994566 281.60644 262.239672 277.51994 C 263.474136 273.433439 264.815019 269.368222 266.251679 265.356214 C 267.698982 261.333565 269.23142 257.342842 270.870277 253.394686 C 272.498492 249.457172 274.233126 245.551584 276.063538 241.688563 C 277.883308 237.825543 279.809497 234.015732 281.820822 230.248489 C 283.832147 226.481246 285.939249 222.767213 288.131486 219.095748 C 290.323723 215.434924 292.611738 211.82731 294.984889 208.272905 C 297.358039 204.729143 299.816324 201.23859 302.359746 197.801247 C 304.903167 194.374546 307.531723 191.001054 310.245415 187.702056 C 312.959107 184.403058 315.747293 181.167911 318.609972 178.007258 C 321.483293 174.835963 324.420465 171.749804 327.442773 168.727496 C 330.465081 165.705188 333.561882 162.757374 336.722535 159.894695 C 339.883188 157.021374 343.118335 154.233188 346.427975 151.519496 C 349.726973 148.816446 353.089823 146.18789 356.527166 143.644469 C 359.953867 141.101048 363.44442 138.642762 366.998824 136.269612 C 370.542587 133.896461 374.150201 131.608447 377.821666 129.416209 C 381.48249 127.21333 385.196523 125.11687 388.963766 123.094903 C 392.731009 121.083578 396.551462 119.168031 400.40384 117.337619 C 404.266861 115.507207 408.172449 113.783215 412.120605 112.144358 C 416.06876 110.516143 420.048842 108.973063 424.071491 107.536402 C 428.094141 106.099742 432.148716 104.758859 436.235216 103.513753 C 440.321717 102.279289 444.440144 101.140603 448.579854 100.097694 C 452.730207 99.065427 456.891201 98.128937 461.084121 97.298866 C 465.2664 96.458154 469.480604 95.734503 473.70545 95.106629 C 477.930296 94.478755 482.165783 93.957301 486.422555 93.531623 C 490.668685 93.116588 494.925457 92.807972 499.19287 92.595134 C 503.460284 92.382295 507.727698 92.275876 511.995111 92.275876 C 516.273167 92.275876 520.540581 92.382295 524.807994 92.595134 C 529.075408 92.807972 533.33218 93.116588 537.578309 93.531623 C 541.835081 93.957301 546.070569 94.478755 550.295415 95.106629 C 554.520261 95.734503 558.723823 96.458154 562.916743 97.298866 C 567.109663 98.128937 571.270658 99.065427 575.42101 100.097694 C 579.560721 101.140603 583.679147 102.279289 587.765648 103.513753 C 591.852149 104.758859 595.906724 106.099742 599.929373 107.536402 C 603.952023 108.973063 607.932104 110.516143 611.88026 112.144358 C 615.828416 113.783215 619.734004 115.507207 623.597024 117.337619 C 627.449403 119.168031 631.269855 121.083578 635.037098 123.094903 C 638.804341 125.11687 642.518374 127.21333 646.179198 129.416209 C 649.840022 131.608447 653.447636 133.896461 657.00204 136.269612 C 660.556445 138.642762 664.046997 141.101048 667.473699 143.644469 C 670.911042 146.18789 674.273892 148.816446 677.57289 151.519496 C 680.88253 154.233188 684.107034 157.021374 687.278329 159.894695 C 690.438982 162.757374 693.535784 165.705188 696.558092 168.727496 C 699.5804 171.749804 702.517572 174.835963 705.390893 178.007258 C 708.253572 181.167911 711.041757 184.403058 713.755449 187.702056 C 716.469141 191.001054 719.097698 194.374546 721.641119 197.801247 C 724.18454 201.23859 726.642826 204.729143 729.015976 208.272905 C 731.389126 211.82731 733.666499 215.434924 735.869378 219.095748 C 738.061616 222.767213 740.168718 226.481246 742.180043 230.248489 C 744.191367 234.015732 746.117556 237.825543 747.937326 241.688563 C 749.767738 245.551584 751.502373 249.457172 753.130588 253.394686 C 754.769445 257.342842 756.301883 261.333565 757.738543 265.356214 C 759.185846 269.368222 760.526729 273.433439 761.761193 277.51994 C 763.006298 281.60644 764.144985 285.714225 765.177252 289.864578 C 766.220161 294.004288 767.156651 298.175924 767.986721 302.358203 C 768.816792 306.551123 769.551085 310.754685 770.178959 314.979531 C 770.806832 319.204377 771.328287 323.450506 771.743322 327.696636 C 772.158357 331.953408 772.477615 336.21018 772.690454 340.477593 C 772.892651 344.745007 772.99907 349.012421 772.99907 353.279834 Z M 772.99907 353.279834 " stroke="#000000" stroke-width="10" stroke-opacity="0.2" stroke-miterlimit="4"/></g><path fill="#a9066a" d="M 139.785156 98.589844 C 139.785156 99.96875 139.71875 101.34375 139.585938 102.714844 C 139.449219 104.089844 139.246094 105.449219 138.976562 106.804688 C 138.710938 108.15625 138.375 109.492188 137.972656 110.808594 C 137.574219 112.128906 137.109375 113.425781 136.582031 114.699219 C 136.054688 115.972656 135.464844 117.21875 134.816406 118.433594 C 134.167969 119.652344 133.457031 120.832031 132.691406 121.976562 C 131.925781 123.125 131.105469 124.230469 130.230469 125.296875 C 129.355469 126.363281 128.433594 127.382812 127.457031 128.355469 C 126.480469 129.332031 125.460938 130.257812 124.394531 131.132812 C 123.328125 132.007812 122.222656 132.828125 121.078125 133.59375 C 119.929688 134.359375 118.75 135.066406 117.535156 135.714844 C 116.316406 136.367188 115.074219 136.957031 113.800781 137.484375 C 112.527344 138.011719 111.230469 138.472656 109.910156 138.875 C 108.589844 139.273438 107.253906 139.609375 105.902344 139.878906 C 104.550781 140.148438 103.1875 140.351562 101.816406 140.484375 C 100.445312 140.621094 99.066406 140.6875 97.6875 140.6875 C 96.308594 140.6875 94.933594 140.621094 93.5625 140.484375 C 92.191406 140.351562 90.828125 140.148438 89.476562 139.878906 C 88.125 139.609375 86.789062 139.273438 85.46875 138.875 C 84.148438 138.472656 82.851562 138.011719 81.578125 137.484375 C 80.304688 136.957031 79.0625 136.367188 77.84375 135.714844 C 76.628906 135.066406 75.449219 134.359375 74.300781 133.59375 C 73.15625 132.828125 72.046875 132.007812 70.984375 131.132812 C 69.917969 130.257812 68.898438 129.332031 67.921875 128.355469 C 66.945312 127.382812 66.023438 126.363281 65.148438 125.296875 C 64.273438 124.230469 63.453125 123.125 62.6875 121.976562 C 61.921875 120.832031 61.210938 119.652344 60.5625 118.433594 C 59.914062 117.21875 59.324219 115.972656 58.796875 114.699219 C 58.269531 113.425781 57.804688 112.128906 57.40625 110.808594 C 57.003906 109.492188 56.667969 108.15625 56.402344 106.804688 C 56.132812 105.449219 55.929688 104.089844 55.792969 102.714844 C 55.660156 101.34375 55.589844 99.96875 55.589844 98.589844 C 55.589844 97.210938 55.660156 95.835938 55.792969 94.464844 C 55.929688 93.089844 56.132812 91.730469 56.402344 90.378906 C 56.667969 89.023438 57.003906 87.6875 57.40625 86.371094 C 57.804688 85.050781 58.269531 83.753906 58.796875 82.480469 C 59.324219 81.207031 59.914062 79.960938 60.5625 78.746094 C 61.210938 77.527344 61.921875 76.347656 62.6875 75.203125 C 63.453125 74.054688 64.273438 72.949219 65.148438 71.882812 C 66.023438 70.816406 66.945312 69.796875 67.921875 68.824219 C 68.898438 67.847656 69.917969 66.921875 70.984375 66.046875 C 72.046875 65.171875 73.15625 64.351562 74.300781 63.585938 C 75.449219 62.820312 76.628906 62.113281 77.84375 61.464844 C 79.058594 60.8125 80.304688 60.222656 81.578125 59.695312 C 82.851562 59.167969 84.148438 58.707031 85.46875 58.304688 C 86.789062 57.90625 88.125 57.570312 89.476562 57.300781 C 90.828125 57.03125 92.191406 56.832031 93.5625 56.695312 C 94.933594 56.558594 96.308594 56.492188 97.6875 56.492188 C 99.066406 56.492188 100.445312 56.558594 101.816406 56.695312 C 103.1875 56.832031 104.550781 57.03125 105.902344 57.300781 C 107.253906 57.570312 108.589844 57.90625 109.910156 58.304688 C 111.230469 58.707031 112.527344 59.167969 113.800781 59.695312 C 115.074219 60.222656 116.316406 60.8125 117.535156 61.464844 C 118.75 62.113281 119.929688 62.820312 121.078125 63.585938 C 122.222656 64.351562 123.328125 65.171875 124.394531 66.046875 C 125.460938 66.921875 126.480469 67.847656 127.457031 68.824219 C 128.433594 69.796875 129.355469 70.816406 130.230469 71.882812 C 131.105469 72.949219 131.925781 74.054688 132.691406 75.203125 C 133.457031 76.347656 134.167969 77.527344 134.816406 78.746094 C 135.464844 79.960938 136.054688 81.207031 136.582031 82.480469 C 137.109375 83.753906 137.574219 85.050781 137.972656 86.371094 C 138.375 87.6875 138.710938 89.023438 138.976562 90.378906 C 139.246094 91.730469 139.449219 93.089844 139.585938 94.464844 C 139.71875 95.835938 139.785156 97.210938 139.785156 98.589844 Z M 139.785156 98.589844 " fill-opacity="1" fill-rule="nonzero"/></svg>
