<svg xmlns="http://www.w3.org/2000/svg" xmlns:xlink="http://www.w3.org/1999/xlink" width="498" zoomAndPan="magnify" viewBox="0 0 373.5 309.74999" height="413" preserveAspectRatio="xMidYMid meet" version="1.0"><defs><clipPath id="a9e6aad3c4"><path d="M 71 0.0820312 L 304 0.0820312 L 304 215 L 71 215 Z M 71 0.0820312 " clip-rule="nonzero"/></clipPath></defs><path fill="#00bf63" d="M 140.417969 214.113281 L 234.03125 214.113281 C 235.566406 214.113281 237.09375 214.1875 238.621094 214.335938 C 240.144531 214.488281 241.660156 214.710938 243.164062 215.011719 C 244.667969 215.3125 246.152344 215.683594 247.621094 216.128906 C 249.085938 216.574219 250.527344 217.089844 251.945312 217.675781 C 253.359375 218.261719 254.746094 218.917969 256.097656 219.640625 C 257.449219 220.363281 258.761719 221.148438 260.035156 222 C 261.3125 222.851562 262.542969 223.765625 263.726562 224.738281 C 264.910156 225.710938 266.046875 226.738281 267.128906 227.820312 C 268.214844 228.90625 269.242188 230.039062 270.214844 231.226562 C 271.1875 232.410156 272.097656 233.640625 272.949219 234.914062 C 273.800781 236.1875 274.589844 237.503906 275.3125 238.855469 C 276.035156 240.207031 276.6875 241.589844 277.277344 243.007812 C 277.863281 244.421875 278.378906 245.863281 278.824219 247.332031 C 279.269531 248.796875 279.640625 250.285156 279.941406 251.789062 C 280.238281 253.289062 280.464844 254.804688 280.613281 256.332031 C 280.765625 257.855469 280.839844 259.386719 280.839844 260.917969 C 280.839844 262.453125 280.765625 263.980469 280.613281 265.507812 C 280.464844 267.03125 280.238281 268.546875 279.9375 270.050781 C 279.640625 271.554688 279.269531 273.039062 278.824219 274.507812 C 278.378906 275.972656 277.863281 277.414062 277.277344 278.832031 C 276.6875 280.246094 276.035156 281.632812 275.3125 282.984375 C 274.589844 284.335938 273.800781 285.648438 272.949219 286.921875 C 272.097656 288.199219 271.1875 289.425781 270.214844 290.613281 C 269.242188 291.796875 268.214844 292.933594 267.128906 294.015625 C 266.046875 295.101562 264.910156 296.128906 263.726562 297.101562 C 262.542969 298.074219 261.3125 298.984375 260.035156 299.835938 C 258.761719 300.6875 257.449219 301.476562 256.097656 302.199219 C 254.746094 302.921875 253.359375 303.574219 251.945312 304.164062 C 250.527344 304.75 249.085938 305.265625 247.621094 305.710938 C 246.152344 306.15625 244.667969 306.527344 243.164062 306.824219 C 241.660156 307.125 240.144531 307.351562 238.621094 307.5 C 237.09375 307.648438 235.566406 307.726562 234.03125 307.726562 L 140.417969 307.726562 C 138.886719 307.726562 137.355469 307.648438 135.832031 307.5 C 134.304688 307.351562 132.792969 307.125 131.289062 306.824219 C 129.785156 306.527344 128.300781 306.15625 126.832031 305.710938 C 125.367188 305.265625 123.921875 304.75 122.507812 304.164062 C 121.089844 303.574219 119.707031 302.921875 118.355469 302.199219 C 117.003906 301.476562 115.691406 300.6875 114.414062 299.835938 C 113.140625 298.984375 111.910156 298.074219 110.726562 297.101562 C 109.539062 296.128906 108.40625 295.101562 107.320312 294.015625 C 106.238281 292.933594 105.210938 291.796875 104.238281 290.613281 C 103.265625 289.425781 102.351562 288.199219 101.5 286.921875 C 100.648438 285.648438 99.863281 284.335938 99.140625 282.984375 C 98.417969 281.632812 97.761719 280.246094 97.175781 278.832031 C 96.589844 277.414062 96.074219 275.972656 95.628906 274.507812 C 95.183594 273.039062 94.8125 271.554688 94.511719 270.050781 C 94.214844 268.546875 93.988281 267.03125 93.839844 265.507812 C 93.6875 263.980469 93.613281 262.453125 93.613281 260.917969 C 93.613281 259.386719 93.6875 257.855469 93.839844 256.332031 C 93.988281 254.804688 94.214844 253.289062 94.511719 251.789062 C 94.8125 250.285156 95.183594 248.796875 95.628906 247.332031 C 96.074219 245.863281 96.589844 244.421875 97.175781 243.007812 C 97.761719 241.589844 98.417969 240.207031 99.140625 238.855469 C 99.863281 237.503906 100.648438 236.1875 101.5 234.914062 C 102.351562 233.640625 103.265625 232.410156 104.238281 231.226562 C 105.210938 230.039062 106.238281 228.90625 107.320312 227.820312 C 108.40625 226.738281 109.539062 225.710938 110.726562 224.738281 C 111.910156 223.765625 113.140625 222.851562 114.414062 222 C 115.691406 221.148438 117.003906 220.363281 118.355469 219.640625 C 119.707031 218.917969 121.089844 218.261719 122.507812 217.675781 C 123.921875 217.089844 125.367188 216.574219 126.832031 216.128906 C 128.300781 215.683594 129.785156 215.3125 131.289062 215.011719 C 132.792969 214.710938 134.304688 214.488281 135.832031 214.335938 C 137.355469 214.1875 138.886719 214.113281 140.417969 214.113281 Z M 140.417969 214.113281 " fill-opacity="1" fill-rule="nonzero"/><path fill="#e0a6be" d="M 280.839844 98.03125 C 280.839844 99.5625 280.800781 101.09375 280.726562 102.625 C 280.652344 104.15625 280.539062 105.683594 280.386719 107.207031 C 280.238281 108.734375 280.050781 110.253906 279.824219 111.769531 C 279.601562 113.285156 279.339844 114.792969 279.039062 116.296875 C 278.742188 117.796875 278.40625 119.292969 278.035156 120.777344 C 277.660156 122.265625 277.253906 123.742188 276.808594 125.207031 C 276.363281 126.671875 275.882812 128.128906 275.367188 129.570312 C 274.851562 131.011719 274.300781 132.441406 273.714844 133.855469 C 273.125 135.273438 272.507812 136.671875 271.851562 138.058594 C 271.195312 139.441406 270.507812 140.808594 269.785156 142.160156 C 269.0625 143.511719 268.308594 144.84375 267.519531 146.160156 C 266.734375 147.472656 265.914062 148.765625 265.0625 150.039062 C 264.210938 151.316406 263.328125 152.566406 262.417969 153.796875 C 261.503906 155.027344 260.5625 156.234375 259.589844 157.417969 C 258.617188 158.605469 257.617188 159.765625 256.589844 160.898438 C 255.558594 162.035156 254.503906 163.144531 253.421875 164.226562 C 252.335938 165.308594 251.226562 166.367188 250.09375 167.394531 C 248.957031 168.421875 247.796875 169.425781 246.613281 170.394531 C 245.429688 171.367188 244.222656 172.308594 242.992188 173.222656 C 241.761719 174.136719 240.507812 175.015625 239.234375 175.867188 C 237.960938 176.71875 236.667969 177.539062 235.351562 178.328125 C 234.039062 179.113281 232.707031 179.871094 231.355469 180.589844 C 230.003906 181.3125 228.636719 182.003906 227.25 182.65625 C 225.867188 183.3125 224.464844 183.933594 223.050781 184.519531 C 221.632812 185.105469 220.207031 185.65625 218.761719 186.171875 C 217.320312 186.6875 215.867188 187.167969 214.398438 187.613281 C 212.933594 188.058594 211.457031 188.46875 209.972656 188.839844 C 208.484375 189.210938 206.992188 189.546875 205.488281 189.847656 C 203.984375 190.144531 202.476562 190.40625 200.960938 190.632812 C 199.445312 190.855469 197.925781 191.042969 196.402344 191.195312 C 194.875 191.34375 193.347656 191.457031 191.820312 191.53125 C 190.289062 191.609375 188.757812 191.644531 187.226562 191.644531 C 185.695312 191.644531 184.164062 191.609375 182.632812 191.53125 C 181.101562 191.457031 179.574219 191.34375 178.050781 191.195312 C 176.527344 191.042969 175.003906 190.855469 173.488281 190.632812 C 171.972656 190.40625 170.464844 190.144531 168.964844 189.847656 C 167.460938 189.546875 165.964844 189.210938 164.480469 188.839844 C 162.992188 188.46875 161.515625 188.058594 160.050781 187.613281 C 158.585938 187.167969 157.132812 186.6875 155.6875 186.171875 C 154.246094 185.65625 152.816406 185.105469 151.402344 184.519531 C 149.988281 183.933594 148.585938 183.3125 147.203125 182.65625 C 145.816406 182.003906 144.449219 181.3125 143.097656 180.589844 C 141.746094 179.871094 140.414062 179.113281 139.097656 178.328125 C 137.785156 177.539062 136.492188 176.71875 135.21875 175.867188 C 133.945312 175.015625 132.691406 174.136719 131.460938 173.222656 C 130.230469 172.308594 129.023438 171.367188 127.839844 170.394531 C 126.652344 169.425781 125.496094 168.421875 124.359375 167.394531 C 123.222656 166.367188 122.113281 165.308594 121.03125 164.226562 C 119.949219 163.144531 118.890625 162.035156 117.863281 160.898438 C 116.835938 159.765625 115.835938 158.605469 114.863281 157.417969 C 113.890625 156.234375 112.949219 155.027344 112.035156 153.796875 C 111.121094 152.566406 110.242188 151.316406 109.390625 150.039062 C 108.539062 148.765625 107.71875 147.472656 106.929688 146.160156 C 106.144531 144.84375 105.390625 143.511719 104.667969 142.160156 C 103.945312 140.808594 103.253906 139.441406 102.601562 138.058594 C 101.945312 136.671875 101.324219 135.273438 100.738281 133.855469 C 100.152344 132.441406 99.601562 131.011719 99.085938 129.570312 C 98.570312 128.128906 98.089844 126.671875 97.644531 125.207031 C 97.199219 123.742188 96.789062 122.265625 96.417969 120.777344 C 96.046875 119.292969 95.710938 117.796875 95.410156 116.296875 C 95.113281 114.792969 94.851562 113.285156 94.625 111.769531 C 94.402344 110.253906 94.214844 108.734375 94.0625 107.207031 C 93.914062 105.683594 93.800781 104.15625 93.726562 102.625 C 93.652344 101.09375 93.613281 99.5625 93.613281 98.03125 C 93.613281 96.5 93.652344 94.96875 93.726562 93.4375 C 93.800781 91.910156 93.914062 90.382812 94.0625 88.855469 C 94.214844 87.332031 94.402344 85.8125 94.625 84.296875 C 94.851562 82.78125 95.113281 81.273438 95.410156 79.769531 C 95.710938 78.265625 96.046875 76.773438 96.417969 75.285156 C 96.789062 73.800781 97.199219 72.324219 97.644531 70.859375 C 98.089844 69.390625 98.570312 67.9375 99.085938 66.496094 C 99.601562 65.050781 100.152344 63.625 100.738281 62.207031 C 101.324219 60.792969 101.945312 59.390625 102.601562 58.007812 C 103.253906 56.621094 103.945312 55.253906 104.667969 53.902344 C 105.390625 52.550781 106.144531 51.21875 106.929688 49.90625 C 107.71875 48.589844 108.539062 47.296875 109.390625 46.023438 C 110.242188 44.75 111.121094 43.496094 112.035156 42.265625 C 112.949219 41.035156 113.890625 39.828125 114.863281 38.644531 C 115.835938 37.460938 116.835938 36.300781 117.863281 35.164062 C 118.890625 34.03125 119.949219 32.921875 121.03125 31.835938 C 122.113281 30.753906 123.222656 29.699219 124.359375 28.667969 C 125.496094 27.640625 126.652344 26.640625 127.839844 25.667969 C 129.023438 24.695312 130.230469 23.753906 131.460938 22.839844 C 132.691406 21.929688 133.945312 21.046875 135.21875 20.195312 C 136.492188 19.34375 137.785156 18.523438 139.097656 17.738281 C 140.414062 16.949219 141.746094 16.195312 143.097656 15.472656 C 144.449219 14.75 145.816406 14.0625 147.203125 13.40625 C 148.585938 12.753906 149.988281 12.132812 151.402344 11.546875 C 152.816406 10.957031 154.246094 10.40625 155.6875 9.890625 C 157.132812 9.375 158.585938 8.894531 160.050781 8.449219 C 161.515625 8.003906 162.992188 7.597656 164.480469 7.226562 C 165.964844 6.851562 167.460938 6.515625 168.964844 6.21875 C 170.464844 5.917969 171.972656 5.65625 173.488281 5.433594 C 175.003906 5.207031 176.527344 5.019531 178.050781 4.871094 C 179.574219 4.71875 181.101562 4.605469 182.632812 4.53125 C 184.164062 4.457031 185.695312 4.417969 187.226562 4.417969 C 188.757812 4.417969 190.289062 4.457031 191.820312 4.53125 C 193.347656 4.605469 194.875 4.71875 196.402344 4.871094 C 197.925781 5.019531 199.445312 5.207031 200.960938 5.433594 C 202.476562 5.65625 203.984375 5.917969 205.488281 6.21875 C 206.992188 6.515625 208.484375 6.851562 209.972656 7.226562 C 211.457031 7.597656 212.933594 8.003906 214.398438 8.449219 C 215.867188 8.894531 217.320312 9.375 218.761719 9.890625 C 220.207031 10.40625 221.632812 10.957031 223.050781 11.546875 C 224.464844 12.132812 225.867188 12.753906 227.25 13.40625 C 228.636719 14.0625 230.003906 14.75 231.355469 15.472656 C 232.707031 16.195312 234.039062 16.949219 235.351562 17.738281 C 236.667969 18.523438 237.960938 19.34375 239.234375 20.195312 C 240.507812 21.046875 241.761719 21.929688 242.992188 22.839844 C 244.222656 23.753906 245.429688 24.695312 246.613281 25.667969 C 247.796875 26.640625 248.957031 27.640625 250.09375 28.667969 C 251.226562 29.699219 252.335938 30.753906 253.421875 31.835938 C 254.503906 32.921875 255.558594 34.03125 256.589844 35.164062 C 257.617188 36.300781 258.617188 37.460938 259.589844 38.644531 C 260.5625 39.828125 261.503906 41.035156 262.417969 42.265625 C 263.328125 43.496094 264.210938 44.75 265.0625 46.023438 C 265.914062 47.296875 266.734375 48.589844 267.519531 49.90625 C 268.308594 51.21875 269.0625 52.550781 269.785156 53.902344 C 270.507812 55.253906 271.195312 56.621094 271.851562 58.007812 C 272.507812 59.390625 273.125 60.792969 273.714844 62.207031 C 274.300781 63.625 274.851562 65.050781 275.367188 66.496094 C 275.882812 67.9375 276.363281 69.390625 276.808594 70.859375 C 277.253906 72.324219 277.660156 73.800781 278.035156 75.285156 C 278.40625 76.773438 278.742188 78.265625 279.039062 79.769531 C 279.339844 81.273438 279.601562 82.78125 279.824219 84.296875 C 280.050781 85.8125 280.238281 87.332031 280.386719 88.855469 C 280.539062 90.382812 280.652344 91.910156 280.726562 93.4375 C 280.800781 94.96875 280.839844 96.5 280.839844 98.03125 Z M 280.839844 98.03125 " fill-opacity="1" fill-rule="nonzero"/><g clip-path="url(#a9e6aad3c4)"><path stroke-linecap="butt" transform="matrix(0.365676, 0, 0, 0.365676, 0.000000000000021288, -31.153657)" fill="none" stroke-linejoin="miter" d="M 773.001954 353.277332 C 773.001954 357.550245 772.895131 361.823157 772.681486 366.085388 C 772.478522 370.3583 772.158054 374.609849 771.741445 378.861397 C 771.324836 383.112945 770.801404 387.353811 770.171149 391.573312 C 769.551577 395.803496 768.8145 400.012315 767.981282 404.199769 C 767.148064 408.387223 766.218705 412.553313 765.182524 416.698039 C 764.13566 420.842764 763.003338 424.955442 761.764194 429.046756 C 760.525049 433.127388 759.179081 437.186655 757.747656 441.203193 C 756.305548 445.230413 754.767299 449.214904 753.13291 453.156666 C 751.498521 457.10911 749.767991 461.008143 747.941321 464.875129 C 746.114651 468.731433 744.19184 472.545008 742.183571 476.315853 C 740.16462 480.086699 738.06021 483.79345 735.870343 487.457473 C 733.669793 491.121496 731.383784 494.732107 729.012318 498.278624 C 726.640851 501.835824 724.183926 505.32893 721.641543 508.757943 C 719.088478 512.186955 716.460637 515.551874 713.758019 518.852699 C 711.04472 522.153524 708.256644 525.390255 705.383111 528.552211 C 702.520259 531.724848 699.571949 534.812028 696.559546 537.835114 C 693.53646 540.858199 690.438598 543.795827 687.276643 546.669361 C 684.114688 549.532212 680.877956 552.33097 677.577131 555.033587 C 674.276306 557.746887 670.911387 560.374728 667.482375 562.917111 C 664.04268 565.459494 660.560256 567.916419 657.003057 570.298568 C 653.456539 572.670034 649.845928 574.956043 646.181905 577.14591 C 642.517882 579.34646 638.800448 581.45087 635.029603 583.459139 C 631.26944 585.47809 627.455865 587.390219 623.588879 589.216889 C 619.732576 591.043559 615.82286 592.774089 611.881098 594.408478 C 607.939336 596.042867 603.954845 597.581115 599.927625 599.023223 C 595.911087 600.465332 591.85182 601.800617 587.760506 603.039761 C 583.679875 604.278906 579.556514 605.42191 575.422471 606.458092 C 571.277746 607.494273 567.111656 608.434314 562.913519 609.267532 C 558.726064 610.10075 554.517245 610.827145 550.297744 611.457399 C 546.067561 612.076972 541.837377 612.600404 537.585829 613.027695 C 533.334281 613.444304 529.07205 613.75409 524.80982 613.967736 C 520.536907 614.170699 516.274677 614.277522 512.001764 614.277522 C 507.728851 614.277522 503.455939 614.170699 499.193708 613.967736 C 494.931478 613.75409 490.669247 613.444304 486.417699 613.027695 C 482.166151 612.600404 477.925285 612.076972 473.705784 611.457399 C 469.4756 610.827145 465.266781 610.10075 461.079327 609.267532 C 456.891873 608.434314 452.725783 607.494273 448.581057 606.458092 C 444.436332 605.42191 440.323654 604.278906 436.23234 603.039761 C 432.151708 601.800617 428.092441 600.465332 424.075903 599.023223 C 420.048683 597.581115 416.064192 596.042867 412.12243 594.408478 C 408.169986 592.774089 404.270953 591.043559 400.403967 589.216889 C 396.547663 587.390219 392.734088 585.47809 388.963243 583.459139 C 385.20308 581.45087 381.485646 579.34646 377.821623 577.14591 C 374.1576 574.956043 370.546989 572.670034 367.000472 570.298568 C 363.443272 567.916419 359.950166 565.459494 356.521153 562.917111 C 353.092141 560.374728 349.727222 557.746887 346.426397 555.033587 C 343.125572 552.33097 339.888841 549.532212 336.726885 546.669361 C 333.554248 543.795827 330.467068 540.858199 327.443982 537.835114 C 324.420897 534.812028 321.483269 531.724848 318.609735 528.552211 C 315.746884 525.390255 312.958808 522.153524 310.245509 518.852699 C 307.532209 515.551874 304.904368 512.186955 302.361985 508.757943 C 299.819602 505.32893 297.362677 501.835824 294.99121 498.278624 C 292.609062 494.732107 290.333736 491.121496 288.133186 487.457473 C 285.932636 483.79345 283.828226 480.086699 281.819957 476.315853 C 279.801006 472.545008 277.888877 468.731433 276.062207 464.875129 C 274.235537 461.008143 272.505007 457.10911 270.870618 453.156666 C 269.236229 449.214904 267.697981 445.230413 266.255873 441.203193 C 264.813764 437.186655 263.478479 433.127388 262.239335 429.046756 C 261.00019 424.955442 259.857186 420.842764 258.821004 416.698039 C 257.784823 412.553313 256.844782 408.387223 256.011564 404.199769 C 255.178346 400.012315 254.451951 395.803496 253.821697 391.573312 C 253.202124 387.353811 252.678692 383.112945 252.262083 378.861397 C 251.834792 374.609849 251.525006 370.3583 251.31136 366.085388 C 251.108397 361.823157 251.001574 357.550245 251.001574 353.277332 C 251.001574 349.004419 251.108397 344.742189 251.31136 340.469276 C 251.525006 336.207046 251.834792 331.944815 252.262083 327.693267 C 252.678692 323.441719 253.202124 319.211535 253.821697 314.981352 C 254.451951 310.761851 255.178346 306.553032 256.011564 302.365577 C 256.844782 298.16744 257.784823 294.00135 258.821004 289.867307 C 259.857186 285.722582 261.00019 281.599221 262.239335 277.51859 C 263.478479 273.427276 264.813764 269.378691 266.255873 265.351471 C 267.697981 261.334933 269.236229 257.350442 270.870618 253.397998 C 272.505007 249.456236 274.235537 245.54652 276.062207 241.690217 C 277.888877 237.823231 279.801006 234.009656 281.819957 230.249493 C 283.828226 226.478648 285.932636 222.761214 288.133186 219.097191 C 290.333736 215.433168 292.609062 211.822557 294.99121 208.276039 C 297.362677 204.729522 299.819602 201.236416 302.361985 197.807403 C 304.904368 194.367709 307.532209 191.00279 310.245509 187.701965 C 312.958808 184.40114 315.746884 181.164408 318.609735 178.002453 C 321.483269 174.840498 324.420897 171.742636 327.443982 168.730232 C 330.467068 165.707147 333.554248 162.758837 336.726885 159.895985 C 339.888841 157.022452 343.125572 154.234376 346.426397 151.521077 C 349.727222 148.818459 353.092141 146.190618 356.521153 143.637553 C 359.950166 141.09517 363.443272 138.638245 367.000472 136.266778 C 370.546989 133.895312 374.1576 131.609303 377.821623 129.408753 C 381.485646 127.218886 385.20308 125.114476 388.963243 123.095525 C 392.734088 121.087256 396.547663 119.164445 400.403967 117.337775 C 404.270953 115.511105 408.169986 113.780575 412.12243 112.146186 C 416.064192 110.511797 420.048683 108.973548 424.075903 107.542123 C 428.092441 106.100015 432.151708 104.754047 436.23234 103.514902 C 440.323654 102.275758 444.436332 101.143436 448.581057 100.096572 C 452.725783 99.060391 456.891873 98.131032 461.079327 97.297814 C 465.266781 96.464596 469.4756 95.727519 473.705784 95.107947 C 477.925285 94.477692 482.166151 93.95426 486.417699 93.537651 C 490.669247 93.121042 494.931478 92.800574 499.193708 92.59761 C 503.455939 92.383965 507.728851 92.277142 512.001764 92.277142 C 516.274677 92.277142 520.536907 92.383965 524.80982 92.59761 C 529.07205 92.800574 533.334281 93.121042 537.585829 93.537651 C 541.837377 93.95426 546.067561 94.477692 550.297744 95.107947 C 554.517245 95.727519 558.726064 96.464596 562.913519 97.297814 C 567.111656 98.131032 571.277746 99.060391 575.422471 100.096572 C 579.556514 101.143436 583.679875 102.275758 587.760506 103.514902 C 591.85182 104.754047 595.911087 106.100015 599.927625 107.542123 C 603.954845 108.973548 607.939336 110.511797 611.881098 112.146186 C 615.82286 113.780575 619.732576 115.511105 623.588879 117.337775 C 627.455865 119.164445 631.26944 121.087256 635.029603 123.095525 C 638.800448 125.114476 642.517882 127.218886 646.181905 129.408753 C 649.845928 131.609303 653.456539 133.895312 657.003057 136.266778 C 660.560256 138.638245 664.04268 141.09517 667.482375 143.637553 C 670.911387 146.190618 674.276306 148.818459 677.577131 151.521077 C 680.877956 154.234376 684.114688 157.022452 687.276643 159.895985 C 690.438598 162.758837 693.53646 165.707147 696.559546 168.730232 C 699.571949 171.742636 702.520259 174.840498 705.383111 178.002453 C 708.256644 181.164408 711.04472 184.40114 713.758019 187.701965 C 716.460637 191.00279 719.088478 194.367709 721.641543 197.807403 C 724.183926 201.236416 726.640851 204.729522 729.012318 208.276039 C 731.383784 211.822557 733.669793 215.433168 735.870343 219.097191 C 738.06021 222.761214 740.16462 226.478648 742.183571 230.249493 C 744.19184 234.009656 746.114651 237.823231 747.941321 241.690217 C 749.767991 245.54652 751.498521 249.456236 753.13291 253.397998 C 754.767299 257.350442 756.305548 261.334933 757.747656 265.351471 C 759.179081 269.378691 760.525049 273.427276 761.764194 277.51859 C 763.003338 281.599221 764.13566 285.722582 765.182524 289.867307 C 766.218705 294.00135 767.148064 298.16744 767.981282 302.365577 C 768.8145 306.553032 769.551577 310.761851 770.171149 314.981352 C 770.801404 319.211535 771.324836 323.441719 771.741445 327.693267 C 772.158054 331.944815 772.478522 336.207046 772.681486 340.469276 C 772.895131 344.742189 773.001954 349.004419 773.001954 353.277332 Z M 773.001954 353.277332 " stroke="#000000" stroke-width="10" stroke-opacity="0.2" stroke-miterlimit="4"/></g><path fill="#a9066a" d="M 229.164062 98.03125 C 229.164062 99.40625 229.097656 100.777344 228.960938 102.144531 C 228.828125 103.511719 228.625 104.867188 228.359375 106.214844 C 228.089844 107.5625 227.757812 108.890625 227.359375 110.207031 C 226.960938 111.519531 226.496094 112.8125 225.972656 114.082031 C 225.445312 115.351562 224.859375 116.589844 224.210938 117.800781 C 223.566406 119.011719 222.859375 120.191406 222.097656 121.332031 C 221.332031 122.472656 220.515625 123.574219 219.644531 124.636719 C 218.773438 125.699219 217.851562 126.714844 216.882812 127.6875 C 215.910156 128.660156 214.894531 129.578125 213.832031 130.453125 C 212.769531 131.324219 211.667969 132.140625 210.527344 132.902344 C 209.382812 133.664062 208.207031 134.371094 206.996094 135.019531 C 205.785156 135.667969 204.542969 136.253906 203.273438 136.777344 C 202.007812 137.304688 200.714844 137.765625 199.398438 138.164062 C 198.085938 138.5625 196.753906 138.898438 195.40625 139.164062 C 194.0625 139.433594 192.703125 139.632812 191.335938 139.769531 C 189.96875 139.902344 188.597656 139.972656 187.226562 139.972656 C 185.851562 139.972656 184.480469 139.902344 183.113281 139.769531 C 181.75 139.632812 180.390625 139.433594 179.042969 139.164062 C 177.695312 138.898438 176.367188 138.5625 175.050781 138.164062 C 173.738281 137.765625 172.445312 137.304688 171.175781 136.777344 C 169.90625 136.253906 168.667969 135.667969 167.457031 135.019531 C 166.246094 134.371094 165.066406 133.664062 163.925781 132.902344 C 162.785156 132.140625 161.683594 131.324219 160.621094 130.453125 C 159.558594 129.578125 158.542969 128.660156 157.570312 127.6875 C 156.597656 126.714844 155.679688 125.699219 154.808594 124.636719 C 153.9375 123.574219 153.117188 122.472656 152.355469 121.332031 C 151.59375 120.191406 150.886719 119.011719 150.238281 117.800781 C 149.59375 116.589844 149.003906 115.351562 148.480469 114.082031 C 147.953125 112.8125 147.492188 111.519531 147.09375 110.207031 C 146.695312 108.890625 146.359375 107.5625 146.09375 106.214844 C 145.824219 104.867188 145.625 103.511719 145.488281 102.144531 C 145.355469 100.777344 145.289062 99.40625 145.289062 98.03125 C 145.289062 96.660156 145.355469 95.289062 145.488281 93.921875 C 145.625 92.554688 145.824219 91.199219 146.09375 89.851562 C 146.359375 88.503906 146.695312 87.171875 147.09375 85.859375 C 147.492188 84.542969 147.953125 83.253906 148.480469 81.984375 C 149.003906 80.714844 149.59375 79.472656 150.238281 78.261719 C 150.886719 77.050781 151.59375 75.875 152.355469 74.730469 C 153.117188 73.589844 153.9375 72.488281 154.808594 71.425781 C 155.679688 70.363281 156.597656 69.347656 157.570312 68.378906 C 158.542969 67.40625 159.558594 66.484375 160.621094 65.613281 C 161.683594 64.742188 162.785156 63.925781 163.925781 63.160156 C 165.066406 62.398438 166.246094 61.691406 167.457031 61.046875 C 168.667969 60.398438 169.90625 59.8125 171.175781 59.285156 C 172.445312 58.761719 173.738281 58.296875 175.050781 57.898438 C 176.367188 57.5 177.695312 57.167969 179.042969 56.898438 C 180.390625 56.632812 181.75 56.429688 183.113281 56.296875 C 184.480469 56.160156 185.851562 56.09375 187.226562 56.09375 C 188.597656 56.09375 189.96875 56.160156 191.335938 56.296875 C 192.703125 56.429688 194.0625 56.632812 195.40625 56.898438 C 196.753906 57.167969 198.085938 57.5 199.398438 57.898438 C 200.714844 58.296875 202.007812 58.761719 203.273438 59.285156 C 204.542969 59.8125 205.785156 60.398438 206.996094 61.046875 C 208.207031 61.691406 209.382812 62.398438 210.527344 63.160156 C 211.667969 63.925781 212.769531 64.742188 213.832031 65.613281 C 214.894531 66.484375 215.910156 67.40625 216.882812 68.378906 C 217.851562 69.347656 218.773438 70.363281 219.644531 71.425781 C 220.515625 72.488281 221.332031 73.589844 222.097656 74.730469 C 222.859375 75.875 223.566406 77.050781 224.210938 78.261719 C 224.859375 79.472656 225.445312 80.714844 225.972656 81.984375 C 226.496094 83.253906 226.960938 84.542969 227.359375 85.859375 C 227.757812 87.171875 228.089844 88.503906 228.359375 89.851562 C 228.625 91.199219 228.828125 92.554688 228.960938 93.921875 C 229.097656 95.289062 229.164062 96.660156 229.164062 98.03125 Z M 229.164062 98.03125 " fill-opacity="1" fill-rule="nonzero"/></svg>